<?xml version="1.0" standalone="no"?>
<!DOCTYPE svg PUBLIC "-//W3C//DTD SVG 20010904//EN"
 "http://www.w3.org/TR/2001/REC-SVG-20010904/DTD/svg10.dtd">
<svg version="1.0" xmlns="http://www.w3.org/2000/svg"
 width="512.000000pt" height="512.000000pt" viewBox="0 0 512.000000 512.000000"
 preserveAspectRatio="xMidYMid meet">
<metadata>
Created by potrace 1.14, written by Peter Selinger 2001-2017
</metadata>
<g transform="translate(0.000000,512.000000) scale(0.100000,-0.100000)"
fill="#000000" stroke="none">
<path d="M0 4680 c0 -242 3 -440 6 -440 4 0 17 11 30 25 16 17 34 25 56 25 26
0 48 12 93 50 33 28 65 48 72 46 6 -3 13 -2 15 2 2 4 22 22 45 39 27 22 48 31
59 26 11 -4 22 1 32 13 10 14 16 15 19 6 3 -7 24 -22 46 -34 77 -39 198 -22
205 30 2 12 -10 41 -27 67 -25 38 -27 45 -13 45 9 0 23 9 30 20 7 11 21 20 31
20 11 0 23 5 26 11 5 7 14 4 27 -7 24 -23 52 -9 56 28 2 20 16 31 65 54 34 16
64 31 67 34 18 20 72 50 80 45 5 -3 10 -1 10 6 0 10 3 10 12 1 18 -18 31 -14
25 8 -3 13 1 24 13 30 20 11 50 4 50 -11 0 -13 28 -11 36 3 4 6 0 16 -9 23
-10 7 -17 15 -17 17 0 11 39 15 48 6 6 -6 12 -6 16 1 4 6 2 11 -4 11 -6 0 -8
5 -5 10 11 17 23 11 29 -15 4 -15 11 -22 20 -19 25 10 27 34 4 43 -19 7 -19 8
-4 14 10 4 22 5 27 1 5 -3 12 2 15 10 3 9 12 16 19 16 7 0 36 15 64 34 28 19
51 33 51 31 0 -2 -5 -16 -10 -31 -15 -37 3 -84 39 -109 l30 -19 -32 -14 c-18
-8 -47 -14 -65 -13 -22 1 -34 -4 -39 -16 -4 -9 -1 -19 5 -21 7 -2 10 -8 6 -13
-3 -5 2 -9 10 -9 9 0 16 4 16 9 0 5 8 11 18 15 9 3 24 9 32 12 22 9 -19 -20
-63 -45 -21 -11 -46 -21 -56 -21 -11 0 -21 -6 -24 -12 -4 -10 -7 -10 -18 0
-28 26 -111 2 -124 -37 -3 -11 -13 -25 -22 -33 -14 -11 -15 -10 -8 12 7 23 5
23 -23 -7 -37 -39 -41 -40 -35 -9 6 31 -21 72 -52 80 -29 7 -90 -16 -121 -45
-12 -12 -25 -37 -29 -56 -7 -41 11 -67 53 -78 20 -5 23 -8 11 -16 -7 -5 -24
-9 -36 -9 -13 0 -23 -4 -23 -10 0 -5 -8 -10 -17 -11 -11 0 -13 -3 -5 -6 19 -7
14 -19 -13 -31 -14 -6 -25 -8 -25 -3 0 5 6 11 13 14 6 2 10 7 6 10 -3 4 -26
-3 -52 -15 -39 -18 -46 -26 -41 -42 3 -12 2 -16 -3 -11 -14 17 -50 11 -77 -14
-14 -13 -23 -29 -20 -35 3 -6 -3 0 -14 13 -23 29 -57 23 -49 -9 4 -14 -3 -22
-27 -31 -17 -7 -37 -12 -43 -12 -7 0 -13 -7 -13 -16 0 -9 -14 -22 -30 -30 -17
-7 -43 -26 -58 -41 -15 -15 -38 -31 -52 -35 -24 -6 -24 -6 -5 9 11 8 31 24 45
35 14 11 34 27 45 35 15 12 16 15 5 16 -18 0 -91 -47 -103 -67 -4 -7 -14 -13
-22 -13 -7 0 -20 -6 -27 -13 -32 -30 -80 -67 -88 -67 -5 0 8 18 29 39 23 23
35 44 31 51 -11 18 -45 7 -46 -15 -1 -11 -2 -26 -3 -32 -1 -7 -6 -13 -12 -13
-6 0 -25 -11 -43 -25 -18 -14 -39 -25 -47 -25 -21 0 -38 -20 -32 -36 3 -8 -1
-14 -11 -14 -9 0 -21 11 -26 25 -27 70 -30 13 -30 -506 0 -442 2 -533 14 -544
12 -12 15 -12 20 0 3 8 10 15 16 15 26 0 -2 -76 -32 -85 -11 -4 -18 -16 -18
-33 0 -26 1 -26 33 13 17 21 39 47 47 57 8 10 31 20 50 22 19 2 36 8 38 15 2
6 10 11 17 11 7 0 26 7 41 15 16 8 48 15 72 15 24 0 56 7 71 15 31 15 91 85
91 104 0 12 63 44 87 44 7 0 10 4 7 9 -3 4 11 15 30 25 19 9 33 20 30 25 -6
10 36 88 48 88 17 0 7 -30 -19 -55 -24 -21 -26 -27 -13 -35 22 -14 26 -13 44
15 9 14 21 23 25 20 5 -3 11 2 14 10 3 7 22 17 42 21 19 3 39 11 43 18 13 20
49 35 59 25 16 -16 70 10 95 46 22 33 66 53 88 40 5 -3 10 0 10 8 0 8 8 17 18
21 9 3 31 15 47 26 17 11 49 29 72 40 23 11 45 25 48 30 3 6 15 10 25 10 10 0
20 3 22 8 2 4 34 23 72 42 37 19 74 44 82 54 7 11 16 17 20 14 3 -3 37 9 74
28 38 19 76 34 84 34 8 0 18 9 21 20 3 11 14 20 24 20 9 0 22 5 29 12 7 7 12
9 12 5 0 -4 9 -3 20 3 15 8 20 8 21 -2 0 -7 4 -3 9 10 9 20 16 22 69 21 72 -2
100 13 126 68 23 50 22 49 45 28 16 -14 22 -15 35 -5 8 7 15 17 15 23 0 6 -6
3 -13 -8 -14 -18 -43 -12 -31 7 4 6 0 15 -7 20 -10 7 -8 8 8 3 13 -3 34 2 54
14 18 11 36 18 40 15 4 -2 11 5 14 17 4 12 12 18 21 15 7 -3 16 -1 19 4 4 6
13 10 22 10 9 0 24 6 32 14 9 7 54 33 101 57 47 24 107 56 135 72 30 18 51 25
53 18 8 -25 48 -10 71 27 21 34 79 72 110 72 5 0 11 3 13 8 3 7 79 49 183 102
28 14 52 28 53 33 7 14 21 7 49 -23 27 -28 94 -50 157 -50 34 0 102 49 120 87
20 43 20 64 -1 101 -22 39 -16 46 94 102 48 24 98 55 111 68 12 13 26 21 30
18 8 -5 118 48 192 92 64 39 103 53 114 42 28 -28 85 8 88 57 1 17 6 29 11 26
6 -3 43 12 83 33 l74 39 -1072 3 c-590 1 -1079 0 -1087 -3 -10 -4 -12 -17 -8
-44 4 -34 2 -40 -22 -52 -44 -23 -47 -22 -16 5 33 28 23 36 -13 10 -13 -9 -31
-13 -42 -9 -11 4 -20 2 -20 -3 0 -5 10 -12 22 -15 12 -4 19 -9 16 -13 -4 -3
-14 -2 -24 4 -11 6 -25 5 -43 -3 -14 -8 -39 -18 -55 -24 -24 -10 -27 -15 -22
-39 5 -19 4 -23 -3 -12 -9 12 -11 12 -16 -2 -4 -9 -12 -19 -20 -21 -7 -3 -1
18 16 51 16 31 29 69 29 83 0 26 -36 69 -59 69 -7 0 -9 5 -6 10 4 7 -263 10
-794 10 l-801 0 0 -440z m3920 405 c-7 -8 -16 -15 -21 -15 -5 0 -9 7 -9 15 0
9 9 15 21 15 18 0 19 -2 9 -15z m-1770 -5 c0 -5 -2 -10 -4 -10 -3 0 -8 5 -11
10 -3 6 -1 10 4 10 6 0 11 -4 11 -10z m225 0 c-3 -5 -11 -10 -16 -10 -6 0 -7
5 -4 10 3 6 11 10 16 10 6 0 7 -4 4 -10z m1475 -50 c17 -33 -4 -62 -43 -58
-39 4 -47 28 -18 57 26 26 47 27 61 1z m-2320 1 c0 -23 -14 -41 -30 -41 -29 0
-33 17 -8 34 25 18 38 20 38 7z m340 -28 c0 -5 -19 -19 -43 -32 l-42 -23 35
30 c35 31 50 38 50 25z m1755 -23 c3 -5 -1 -10 -9 -10 -9 0 -16 5 -16 10 0 6
4 10 9 10 6 0 13 -4 16 -10z m-1910 -39 c3 -5 1 -12 -4 -15 -5 -3 -11 1 -15 9
-6 16 9 21 19 6z m-175 -90 c-13 -11 -29 -17 -34 -14 -5 3 4 12 20 19 40 17
43 16 14 -5z m1790 -56 c0 -3 -7 -5 -15 -5 -8 0 -15 5 -15 10 0 6 -5 10 -11
10 -6 0 -9 -7 -6 -14 4 -10 1 -13 -8 -9 -14 5 -13 14 8 41 8 10 14 8 28 -7 11
-11 19 -23 19 -26z m-1850 15 c-24 -15 -36 -11 -14 4 10 8 21 12 24 10 2 -3
-2 -9 -10 -14z m214 -126 c4 -10 1 -14 -6 -12 -15 5 -23 28 -10 28 5 0 13 -7
16 -16z m-756 -32 c-29 -5 -34 6 -12 22 17 13 20 12 25 -2 4 -12 0 -18 -13
-20z m282 3 c0 -27 -9 -32 -27 -14 -14 14 -6 39 13 39 8 0 14 -10 14 -25z
m1950 19 c20 -5 38 -17 49 -35 53 -87 -56 -186 -174 -159 -69 16 -78 28 -59
84 9 25 26 53 37 61 12 8 17 15 12 15 -6 1 6 9 25 20 38 21 60 24 110 14z
m-2031 -47 c-25 -16 -99 -45 -99 -38 0 10 92 52 99 45 2 -2 2 -5 0 -7z m-149
-72 c-7 -8 -17 -15 -23 -15 -6 0 -2 7 9 15 25 19 30 19 14 0z m550 -1 c0 -8
-5 -12 -10 -9 -6 4 -8 11 -5 16 9 14 15 11 15 -7z m-992 -24 c14 -23 13 -24
-23 -10 -14 5 -23 14 -20 20 10 16 29 12 43 -10z m152 -130 c-20 -13 -33 -13
-25 0 3 6 14 10 23 10 15 0 15 -2 2 -10z m1950 0 c0 -5 -5 -10 -11 -10 -5 0
-7 5 -4 10 3 6 8 10 11 10 2 0 4 -4 4 -10z m-96 -59 c-4 -14 -14 -34 -22 -44
-14 -16 -17 -16 -33 -1 -21 19 -11 70 14 68 10 -1 17 5 17 13 0 13 3 13 15 3
10 -8 13 -21 9 -39z m-1984 -14 c-21 -18 -73 -40 -65 -27 4 6 21 17 38 24 41
18 44 19 27 3z m1830 3 c0 -5 -7 -10 -16 -10 -8 0 -12 5 -9 10 3 6 10 10 16
10 5 0 9 -4 9 -10z m-1510 -60 c0 -5 -4 -10 -10 -10 -5 0 -10 5 -10 10 0 6 5
10 10 10 6 0 10 -4 10 -10z m1350 -50 c0 -5 -2 -10 -4 -10 -3 0 -8 5 -11 10
-3 6 -1 10 4 10 6 0 11 -4 11 -10z m-2040 -175 c0 -8 -7 -15 -15 -15 -16 0
-20 12 -8 23 11 12 23 8 23 -8z m1730 -34 c0 -29 -37 -79 -60 -82 -69 -8 -93
13 -69 59 22 42 72 68 97 49 9 -7 11 -5 5 9 -6 17 -5 17 10 5 9 -7 17 -25 17
-40z m-1350 -7 c0 -8 -4 -12 -10 -9 -5 3 -10 10 -10 16 0 5 5 9 10 9 6 0 10
-7 10 -16z m1080 -74 c0 -5 -5 -10 -11 -10 -5 0 -7 5 -4 10 3 6 8 10 11 10 2
0 4 -4 4 -10z m-130 -110 c0 -5 -7 -10 -16 -10 -8 0 -12 5 -9 10 3 6 10 10 16
10 5 0 9 -4 9 -10z m-130 -44 c0 -8 -4 -18 -10 -21 -5 -3 -10 -4 -10 -1 0 2
-3 11 -6 20 -4 11 -1 16 10 16 9 0 16 -6 16 -14z m-37 -22 c3 -18 1 -22 -6
-15 -17 17 -31 13 -17 -4 10 -12 10 -15 -4 -15 -18 0 -19 4 -10 38 8 30 31 28
37 -4z m-270 -126 c8 -29 5 -31 -29 -18 -28 11 -28 12 -10 26 27 19 33 18 39
-8z m43 -5 c-7 -7 -26 7 -26 19 0 6 6 6 15 -2 9 -7 13 -15 11 -17z m-60 -33
c8 0 14 -4 14 -9 0 -5 -11 -8 -24 -7 -13 0 -22 4 -20 8 2 3 1 8 -3 11 -5 2 -2
2 5 0 8 -1 20 -3 28 -3z m-146 -109 c0 -21 -15 -35 -48 -46 -21 -6 -23 -4 -20
16 2 13 14 29 28 36 34 17 40 16 40 -6z m-518 -263 c42 -33 -37 -103 -124
-110 l-57 -5 20 25 c10 14 19 30 19 36 0 17 48 50 84 57 17 4 34 7 37 8 3 0
12 -5 21 -11z"/>
<path d="M3055 4640 c-3 -6 1 -7 9 -4 18 7 21 14 7 14 -6 0 -13 -4 -16 -10z"/>
<path d="M4625 5093 c-26 -39 -99 -66 -160 -60 -61 6 -135 41 -135 62 0 8 -4
15 -9 15 -14 0 -1 -37 18 -54 10 -9 40 -27 67 -41 27 -14 41 -25 32 -25 -10 0
-18 -4 -18 -9 0 -14 -71 -52 -89 -49 -10 3 4 16 39 36 67 39 60 42 -14 5 -44
-21 -53 -30 -44 -40 9 -11 6 -19 -12 -36 -12 -12 -20 -17 -16 -10 3 6 2 14 -4
18 -5 3 -10 1 -10 -4 0 -6 -6 -11 -13 -11 -8 0 -22 -9 -33 -21 -17 -19 -116
-70 -132 -68 -21 4 -20 -3 5 -25 24 -21 26 -27 16 -49 -9 -18 -21 -26 -50 -29
-46 -5 -71 12 -42 30 29 18 24 40 -7 34 -18 -3 -25 -1 -20 6 4 6 -2 8 -14 5
-11 -3 -22 -9 -25 -13 -3 -5 4 -6 15 -3 13 4 20 0 20 -9 0 -15 -117 -78 -144
-78 -11 0 -16 10 -16 33 0 33 -21 72 -50 94 -23 18 -24 7 -1 -18 45 -48 9
-139 -54 -139 -31 0 -81 24 -88 42 -2 7 -8 10 -12 5 -10 -9 33 -57 52 -57 22
0 15 -16 -13 -29 -15 -6 -24 -14 -21 -17 3 -3 17 2 31 11 14 9 31 15 38 13 12
-4 -104 -78 -123 -78 -15 0 -11 10 14 32 l22 19 -32 -17 c-18 -10 -29 -22 -26
-27 5 -9 -55 -67 -69 -67 -15 0 -8 15 12 28 11 7 20 18 20 24 0 9 -3 9 -12 0
-7 -7 -22 -12 -35 -12 -19 0 -22 -4 -18 -23 4 -15 -1 -30 -15 -45 -23 -24 -50
-28 -83 -11 -16 9 -22 9 -25 0 -2 -6 -10 -11 -18 -11 -9 0 -12 -5 -8 -11 4 -8
9 -8 17 0 16 16 34 14 41 -4 3 -10 1 -15 -7 -14 -17 3 -67 -12 -67 -20 0 -3
-15 -15 -34 -25 -19 -10 -38 -26 -41 -34 -4 -12 -8 -13 -14 -4 -5 9 -12 9 -27
-3 -19 -14 -19 -15 3 -21 13 -3 20 -10 17 -15 -8 -13 -21 -11 -38 6 -14 14
-20 13 -61 -10 -25 -14 -52 -25 -60 -25 -8 0 -15 -4 -15 -8 0 -5 -16 -16 -35
-25 -41 -19 -49 -21 -40 -8 3 6 -3 15 -14 20 -26 15 -38 14 -23 -1 7 -7 12
-25 12 -40 0 -32 -22 -37 -58 -13 -20 15 -24 14 -51 -6 -30 -22 -32 -39 -6
-39 8 0 21 10 30 23 13 18 17 20 25 7 5 -8 8 -15 7 -16 -99 -70 -146 -96 -98
-55 20 17 20 20 6 35 -9 8 -22 13 -30 10 -24 -10 -17 -26 8 -19 21 7 21 6 5
-11 -14 -14 -20 -15 -32 -5 -23 19 -101 -25 -101 -58 0 -7 -10 -20 -22 -28
-28 -19 -33 2 -5 24 16 13 15 14 -6 8 -17 -5 -28 -1 -38 13 -28 40 -70 63 -96
53 l-23 -10 26 0 c72 -2 115 -126 68 -196 -24 -34 -62 -55 -102 -55 -33 0
-106 48 -123 81 -19 38 -30 32 -12 -6 10 -23 10 -29 0 -33 -20 -6 -13 -22 9
-19 12 1 24 -4 27 -12 3 -10 0 -12 -11 -8 -9 3 -19 2 -22 -3 -10 -17 -48 -12
-41 5 3 8 4 15 2 15 -6 0 -197 -100 -224 -117 -12 -7 -27 -11 -33 -7 -6 3 -19
-3 -30 -15 -16 -17 -17 -21 -4 -21 17 0 19 -18 6 -39 -8 -12 -12 -12 -25 -2
-9 7 -13 17 -10 22 3 5 0 9 -5 9 -6 0 -11 -9 -11 -20 0 -11 5 -20 12 -20 9 0
9 -3 1 -11 -16 -16 -32 -3 -26 21 4 13 0 20 -10 20 -8 0 -14 -7 -13 -16 1 -22
-42 -26 -72 -7 -13 8 -28 13 -34 11 -7 -3 5 -14 25 -27 63 -38 70 -123 15
-164 -38 -28 -89 -16 -137 32 -38 38 -38 38 -62 20 -13 -10 -28 -19 -34 -19
-5 0 -17 -5 -25 -10 -13 -9 -13 -11 0 -19 8 -6 11 -13 7 -17 -3 -4 -16 4 -28
17 -11 13 -18 19 -15 13 7 -14 -47 -54 -74 -54 -11 0 -20 -4 -20 -10 0 -5 -5
-9 -11 -7 -6 1 -14 -4 -16 -10 -7 -18 22 -16 37 2 18 21 38 19 45 -6 9 -28 0
-34 -30 -21 -16 8 -26 8 -31 1 -4 -7 -12 -6 -22 3 -18 15 -93 51 -96 46 -1 -2
-14 -21 -29 -44 -15 -22 -27 -44 -27 -48 0 -11 -27 -36 -39 -36 -5 0 -13 -4
-16 -10 -8 -13 37 -8 48 5 5 6 6 2 3 -8 -3 -10 -6 -23 -6 -29 0 -6 -10 -8 -23
-6 -25 5 -52 -16 -42 -32 3 -6 0 -10 -8 -10 -8 0 -18 7 -21 16 -8 21 -8 21 14
27 20 5 28 27 10 27 -5 0 -10 -4 -10 -9 0 -5 -9 -11 -20 -14 -13 -3 -18 -10
-14 -21 7 -19 -16 -22 -34 -4 -9 9 -12 9 -12 0 0 -7 5 -12 10 -12 6 0 10 -7
10 -15 0 -9 -6 -12 -15 -9 -9 4 -15 0 -15 -10 0 -9 -5 -16 -11 -16 -7 0 -9 11
-6 30 5 23 3 28 -8 23 -8 -3 -15 -13 -15 -23 0 -9 -8 -25 -19 -34 -30 -27
-152 -86 -164 -79 -6 3 -7 1 -3 -5 6 -11 3 -13 -21 -12 -4 0 -6 13 -5 28 3 28
-28 72 -50 72 -7 0 -5 -5 4 -12 24 -20 28 -44 12 -67 -18 -25 -51 -27 -82 -5
-12 8 -22 10 -22 5 0 -6 3 -11 8 -11 4 0 16 -13 27 -29 14 -21 23 -27 31 -20
8 7 14 6 19 -1 3 -5 -1 -11 -9 -11 -33 -3 -37 -4 -44 -15 -4 -7 -26 -18 -50
-26 -37 -13 -41 -16 -28 -28 18 -14 21 -46 6 -55 -19 -12 -48 14 -43 37 3 13
1 19 -4 13 -10 -14 -63 -18 -63 -5 0 5 -7 7 -15 4 -22 -9 -18 -24 6 -24 18 0
20 -2 8 -16 -12 -14 -14 -14 -26 3 -38 53 -46 61 -71 66 -14 3 -41 3 -58 0
-25 -4 -33 -11 -37 -32 -6 -32 0 -41 10 -15 9 25 23 34 54 34 41 0 68 -29 78
-82 6 -36 5 -52 -6 -68 -8 -11 -11 -25 -7 -31 4 -7 -16 1 -44 16 -52 28 -75
53 -85 90 -3 13 -5 8 -6 -12 0 -18 -5 -33 -11 -33 -5 0 -10 -5 -10 -11 0 -6 8
-8 19 -4 11 3 24 -1 32 -11 12 -15 12 -16 -7 -10 -14 4 -26 1 -34 -9 -7 -8
-19 -15 -26 -15 -8 0 -14 -5 -14 -11 0 -6 -7 -9 -15 -5 -8 3 -15 1 -15 -4 0
-6 5 -10 10 -10 22 0 8 -15 -15 -16 -25 -2 -33 10 -15 21 13 8 13 25 0 25 -6
0 -18 -18 -27 -40 -18 -40 -33 -52 -33 -26 0 7 7 19 15 26 9 7 14 15 12 17 -7
6 -57 -19 -57 -29 0 -4 -5 -8 -11 -8 -15 0 -39 -26 -32 -34 4 -3 1 -6 -5 -6
-6 0 -14 5 -17 10 -3 6 -11 10 -17 10 -7 0 -6 -5 1 -14 10 -11 8 -16 -8 -21
-21 -6 -25 -15 -22 -47 3 -22 -19 -34 -30 -17 -6 10 -9 6 -9 -13 0 -16 5 -28
10 -28 6 0 10 -5 10 -11 0 -5 -4 -7 -10 -4 -7 4 -10 -56 -10 -174 0 -134 3
-181 13 -184 10 -4 10 -6 0 -6 -10 -1 -13 -46 -13 -191 0 -104 2 -190 4 -190
3 0 31 16 63 35 32 19 61 35 65 35 3 0 39 19 80 42 40 23 89 50 108 60 19 10
42 22 50 27 8 5 33 17 55 27 22 9 55 30 73 45 18 16 43 29 55 29 13 0 46 20
75 44 34 30 65 46 92 51 38 6 97 34 160 74 14 8 27 16 30 16 5 1 63 32 138 75
9 6 28 15 42 20 14 6 34 15 45 22 11 6 47 25 80 42 33 17 66 38 73 48 7 10 22
18 32 18 10 0 43 14 72 30 29 17 69 37 89 46 20 8 41 27 48 41 7 16 17 23 27
19 9 -3 12 -2 9 5 -4 6 2 8 18 4 18 -5 31 -1 45 13 10 10 36 22 55 26 20 4 40
14 45 23 5 8 15 14 22 11 7 -2 30 13 51 34 23 24 47 38 62 38 30 0 138 55 129
66 -4 4 -1 4 6 0 7 -4 18 -3 25 2 7 6 64 37 127 70 204 106 235 123 257 144
12 12 29 18 37 15 9 -4 16 -3 16 2 0 5 23 19 50 32 28 13 50 29 50 36 0 16 36
35 58 31 21 -3 113 41 125 60 4 6 16 12 25 12 9 0 37 12 62 26 25 14 142 75
260 136 118 61 235 122 260 137 73 43 80 47 195 105 181 93 317 165 329 175 6
5 79 44 161 87 83 43 173 90 200 105 28 15 80 41 116 59 42 20 71 41 78 56 8
18 18 24 38 23 16 -1 55 13 88 31 33 18 80 44 105 58 25 13 115 61 200 105 85
44 162 86 170 92 8 7 32 20 53 28 l37 16 0 301 0 301 -240 -2 -239 -1 -16 -25z
m335 3 c0 -2 3 -11 6 -20 4 -12 0 -16 -15 -16 -14 0 -21 6 -21 20 0 11 7 20
15 20 8 0 15 -2 15 -4z m70 -16 c0 -5 -4 -10 -10 -10 -5 0 -10 5 -10 10 0 6 5
10 10 10 6 0 10 -4 10 -10z m-172 -24 c3 -12 -1 -17 -10 -14 -7 3 -15 13 -16
22 -3 12 1 17 10 14 7 -3 15 -13 16 -22z m-508 -182 c0 -8 -5 -12 -10 -9 -6 4
-8 11 -5 16 9 14 15 11 15 -7z m-105 -24 c-3 -5 -11 -10 -16 -10 -6 0 -7 5 -4
10 3 6 11 10 16 10 6 0 7 -4 4 -10z m679 -16 c6 -17 -31 -19 -54 -4 -12 8 -13
11 -1 19 17 11 48 3 55 -15z m-584 1 c0 -8 -4 -15 -9 -15 -13 0 -22 16 -14 24
11 11 23 6 23 -9z m138 -3 c2 -7 -3 -12 -12 -12 -9 0 -16 7 -16 16 0 17 22 14
28 -4z m-248 -22 c0 -5 -4 -10 -10 -10 -5 0 -10 5 -10 10 0 6 5 10 10 10 6 0
10 -4 10 -10z m10 -40 c0 -5 -4 -10 -9 -10 -6 0 -13 5 -16 10 -3 6 1 10 9 10
9 0 16 -4 16 -10z m755 -25 c-16 -14 -39 -25 -49 -25 -12 0 -2 9 25 24 56 31
61 31 24 1z m-738 -11 c-3 -3 -12 -4 -19 -1 -8 3 -5 6 6 6 11 1 17 -2 13 -5z
m-37 -14 c0 -5 -4 -10 -10 -10 -5 0 -10 5 -10 10 0 6 5 10 10 10 6 0 10 -4 10
-10z m303 -24 c16 -12 24 -36 12 -36 -17 0 -65 32 -60 40 8 14 27 12 48 -4z
m-569 -37 c-8 -14 -24 -10 -24 6 0 9 6 12 15 9 8 -4 12 -10 9 -15z m-62 -24
c0 -5 -5 -11 -11 -13 -6 -2 -11 4 -11 13 0 9 5 15 11 13 6 -2 11 -8 11 -13z
m138 1 c0 -3 -4 -8 -10 -11 -5 -3 -10 -1 -10 4 0 6 5 11 10 11 6 0 10 -2 10
-4z m50 -37 c0 -5 -4 -9 -10 -9 -5 0 -10 7 -10 16 0 8 5 12 10 9 6 -3 10 -10
10 -16z m-252 -1 c5 -7 7 -20 3 -29 -4 -12 -12 -14 -28 -8 -13 5 -23 11 -23
15 0 3 8 3 18 -1 14 -5 15 -4 5 6 -7 7 -13 17 -13 21 0 13 26 9 38 -4z m842 2
c0 -5 -5 -10 -11 -10 -5 0 -8 -4 -5 -9 12 -18 -95 -29 -122 -13 -7 5 8 8 37 8
35 -1 56 4 68 17 19 19 33 22 33 7z m-680 -22 c16 -18 20 -19 14 -5 -6 16 -4
16 19 6 53 -24 39 -109 -18 -109 -42 0 -66 52 -56 123 2 14 20 7 41 -15z m230
1 c0 -5 -11 -9 -25 -9 -26 0 -34 15 -12 23 16 5 37 -3 37 -14z m-505 -9 c-10
-17 -45 -32 -45 -20 0 6 10 15 23 20 29 12 29 12 22 0z m25 -20 c-24 -21 -40
-26 -40 -12 0 7 37 28 54 31 5 0 -1 -8 -14 -19z m535 -9 c-8 -26 -52 -28 -81
-5 -18 14 -17 15 17 9 26 -4 40 -1 49 10 16 20 24 13 15 -14z m-590 -21 c-3
-5 -11 -10 -16 -10 -6 0 -7 5 -4 10 3 6 11 10 16 10 6 0 7 -4 4 -10z m-35 -20
c0 -5 -4 -10 -10 -10 -5 0 -10 5 -10 10 0 6 5 10 10 10 6 0 10 -4 10 -10z
m250 -9 c0 -6 -4 -13 -10 -16 -5 -3 -10 1 -10 9 0 9 5 16 10 16 6 0 10 -4 10
-9z m-60 -11 c0 -5 -4 -10 -9 -10 -6 0 -13 5 -16 10 -3 6 1 10 9 10 9 0 16 -4
16 -10z m-230 -4 c0 -3 -4 -8 -10 -11 -5 -3 -10 -1 -10 4 0 6 5 11 10 11 6 0
10 -2 10 -4z m-83 -28 c-3 -8 -6 -5 -6 6 -1 11 2 17 5 13 3 -3 4 -12 1 -19z
m36 -22 c6 -15 -1 -26 -15 -26 -4 0 -8 9 -8 20 0 23 15 27 23 6z m37 -16 c0
-5 -2 -10 -4 -10 -3 0 -8 5 -11 10 -3 6 -1 10 4 10 6 0 11 -4 11 -10z m65 1
c3 -5 1 -12 -5 -16 -5 -3 -10 1 -10 9 0 18 6 21 15 7z m85 0 c0 -5 7 -8 16 -7
25 2 41 -29 25 -48 -26 -31 -94 -11 -83 24 10 31 42 55 42 31z m-370 -87 c0
-8 -4 -12 -10 -9 -5 3 -10 13 -10 21 0 8 5 12 10 9 6 -3 10 -13 10 -21z m80 5
c0 -6 -4 -7 -10 -4 -5 3 -10 11 -10 16 0 6 5 7 10 4 6 -3 10 -11 10 -16z m-40
-9 c0 -5 -4 -10 -10 -10 -5 0 -10 5 -10 10 0 6 5 10 10 10 6 0 10 -4 10 -10z
m522 -12 c-9 -9 -15 -9 -24 0 -9 9 -7 12 12 12 19 0 21 -3 12 -12z m-412 -9
c0 -6 6 -9 14 -6 8 3 24 -4 36 -15 18 -17 21 -29 18 -72 l-3 -51 -40 3 c-40 4
-65 17 -65 33 0 5 8 6 18 3 12 -4 10 0 -7 15 -13 12 -21 25 -17 28 4 4 10 3
14 -3 11 -16 52 -14 59 2 3 9 1 20 -6 27 -8 8 -11 8 -11 -1 0 -12 -32 -17 -43
-6 -7 8 13 54 25 54 4 0 8 -5 8 -11z m225 -29 c3 -5 1 -10 -4 -10 -6 0 -11 5
-11 10 0 6 2 10 4 10 3 0 8 -4 11 -10z m200 -18 c-3 -3 -11 0 -18 7 -9 10 -8
11 6 5 10 -3 15 -9 12 -12z m40 8 c-3 -5 -12 -10 -18 -10 -7 0 -6 4 3 10 19
12 23 12 15 0z m-677 -23 c15 -12 16 -43 2 -52 -27 -17 -76 46 -54 68 7 6 33
-1 52 -16z m-118 3 c0 -5 -5 -10 -11 -10 -5 0 -7 5 -4 10 3 6 8 10 11 10 2 0
4 -4 4 -10z m40 -6 c0 -8 -4 -12 -10 -9 -5 3 -10 10 -10 16 0 5 5 9 10 9 6 0
10 -7 10 -16z m-140 -54 c-13 -8 -12 -10 3 -10 9 0 17 -6 18 -12 0 -10 2 -10
6 0 8 20 42 14 58 -12 40 -61 -9 -136 -76 -119 -19 5 -34 15 -34 22 0 7 -7 18
-16 24 -13 10 -14 18 -6 37 5 15 11 20 14 13 3 -7 9 -13 15 -13 7 0 6 5 -1 14
-14 17 -9 55 9 66 8 5 17 7 19 4 3 -3 -1 -9 -9 -14z m660 6 c0 -3 -4 -8 -10
-11 -5 -3 -10 -1 -10 4 0 6 5 11 10 11 6 0 10 -2 10 -4z m-690 -20 c0 -3 -4
-8 -10 -11 -5 -3 -10 -1 -10 4 0 6 5 11 10 11 6 0 10 -2 10 -4z m715 -15 c-3
-6 -11 -11 -17 -11 -6 0 -6 6 2 15 14 17 26 13 15 -4z m-875 -31 c0 -5 -2 -10
-4 -10 -3 0 -8 5 -11 10 -3 6 -1 10 4 10 6 0 11 -4 11 -10z m400 0 c0 -5 -2
-10 -4 -10 -3 0 -8 5 -11 10 -3 6 -1 10 4 10 6 0 11 -4 11 -10z m90 -15 c-6
-8 -9 -19 -5 -25 10 -17 23 -11 28 13 3 16 5 13 6 -10 1 -27 -2 -31 -16 -26
-34 12 -47 63 -17 63 13 0 14 -3 4 -15z m-670 -32 c-1 -11 -68 -42 -75 -35 -7
7 46 42 63 42 6 0 12 -3 12 -7z m120 -3 c-8 -5 -19 -10 -25 -10 -5 0 -3 5 5
10 8 5 20 10 25 10 6 0 3 -5 -5 -10z m115 0 c3 -5 1 -10 -4 -10 -6 0 -11 5
-11 10 0 6 2 10 4 10 3 0 8 -4 11 -10z m-60 -20 c3 -5 1 -10 -4 -10 -6 0 -11
5 -11 10 0 6 2 10 4 10 3 0 8 -4 11 -10z m-105 -41 c0 -5 -4 -9 -10 -9 -5 0
-10 7 -10 16 0 8 5 12 10 9 6 -3 10 -10 10 -16z m880 11 c0 -5 -4 -10 -10 -10
-5 0 -10 5 -10 10 0 6 5 10 10 10 6 0 10 -4 10 -10z m-890 -81 c0 -5 -4 -9
-10 -9 -5 0 -10 7 -10 16 0 8 5 12 10 9 6 -3 10 -10 10 -16z m278 -1 c14 -14
16 -28 2 -28 -5 0 -14 9 -20 20 -12 22 -1 27 18 8z m172 2 c0 -5 -5 -10 -11
-10 -5 0 -7 5 -4 10 3 6 8 10 11 10 2 0 4 -4 4 -10z m40 -44 c0 -19 -31 -29
-44 -15 -8 9 -7 10 6 6 9 -3 19 0 22 9 7 18 16 18 16 0z m-640 -56 c0 -5 -2
-10 -4 -10 -3 0 -8 5 -11 10 -3 6 -1 10 4 10 6 0 11 -4 11 -10z m-390 -20 c0
-5 8 -10 18 -10 14 0 12 -4 -8 -20 -14 -11 -29 -20 -34 -20 -6 0 -1 6 10 14
10 8 16 17 12 21 -8 8 -88 -32 -88 -45 0 -12 -41 -50 -54 -50 -6 0 -5 5 2 12
21 21 13 29 -13 12 -14 -9 -25 -12 -25 -6 0 5 15 15 33 22 17 7 41 21 52 30
21 19 75 49 88 50 4 0 7 -4 7 -10z m546 -18 c-7 -20 -34 -37 -44 -27 -3 3 5
16 18 30 26 28 35 27 26 -3z m44 -47 c0 -28 -5 -35 -32 -44 -21 -8 -35 -8 -42
-1 -7 7 -1 10 17 10 30 0 52 31 44 61 -3 10 -1 17 4 13 5 -3 9 -20 9 -39z
m267 19 c-3 -3 -12 -4 -19 -1 -8 3 -5 6 6 6 11 1 17 -2 13 -5z m-897 -14 c0
-5 -7 -10 -15 -10 -8 0 -15 5 -15 10 0 6 7 10 15 10 8 0 15 -4 15 -10z m-169
-59 c-12 -10 -21 -24 -21 -31 0 -16 -11 -7 -14 12 -1 7 -5 19 -9 26 -5 7 -4
12 2 12 6 0 11 -5 11 -12 0 -7 10 -2 22 10 13 12 24 18 26 12 2 -6 -5 -19 -17
-29z m126 5 c-9 -7 -17 -19 -17 -25 0 -7 -5 -9 -11 -6 -7 5 -2 16 12 31 12 13
25 21 28 18 3 -3 -2 -11 -12 -18z m-77 -4 c0 -5 -12 -14 -27 -21 l-28 -13 20
21 c21 21 35 26 35 13z m30 -62 c0 -5 -4 -10 -10 -10 -5 0 -10 5 -10 10 0 6 5
10 10 10 6 0 10 -4 10 -10z m-240 -10 c0 -5 -4 -10 -10 -10 -5 0 -10 5 -10 10
0 6 5 10 10 10 6 0 10 -4 10 -10z m800 -21 c0 -5 -4 -9 -8 -9 -5 0 -9 7 -9 15
0 8 4 12 9 9 4 -3 8 -9 8 -15z m-710 1 c0 -5 -5 -10 -11 -10 -5 0 -7 5 -4 10
3 6 8 10 11 10 2 0 4 -4 4 -10z m30 0 c0 -5 -4 -10 -10 -10 -5 0 -10 5 -10 10
0 6 5 10 10 10 6 0 10 -4 10 -10z m-1 -64 c8 -10 9 -16 1 -21 -13 -8 -30 3
-30 21 0 18 14 18 29 0z m-346 -56 c-9 -32 -20 -32 -15 0 2 17 8 28 12 25 5
-3 6 -14 3 -25z m441 24 c9 -3 16 -17 16 -30 0 -22 -3 -23 -20 -14 -11 6 -20
20 -20 30 0 22 1 23 24 14z m126 -9 c0 -8 -4 -15 -10 -15 -5 0 -10 7 -10 15 0
8 5 15 10 15 6 0 10 -7 10 -15z m-596 -19 c-3 -8 -12 -12 -20 -9 -17 6 -9 23
11 23 8 0 12 -6 9 -14z m-74 -31 c0 -8 -7 -15 -15 -15 -16 0 -20 12 -8 23 11
12 23 8 23 -8z m765 -15 c3 -5 1 -10 -4 -10 -6 0 -11 5 -11 10 0 6 2 10 4 10
3 0 8 -4 11 -10z m-710 -20 c-3 -5 -11 -10 -16 -10 -6 0 -7 5 -4 10 3 6 11 10
16 10 6 0 7 -4 4 -10z m-218 -36 c32 -35 38 -69 19 -99 -23 -34 -77 -35 -111
0 -31 30 -31 36 -3 92 19 39 25 43 48 38 14 -3 35 -17 47 -31z m153 26 c0 -5
-4 -10 -10 -10 -5 0 -10 5 -10 10 0 6 5 10 10 10 6 0 10 -4 10 -10z m154 -26
c9 -22 8 -24 -9 -24 -8 0 -15 9 -15 20 0 24 15 27 24 4z m-104 -4 c0 -5 -5
-10 -11 -10 -5 0 -7 5 -4 10 3 6 8 10 11 10 2 0 4 -4 4 -10z m515 0 c3 -5 1
-10 -4 -10 -6 0 -11 5 -11 10 0 6 2 10 4 10 3 0 8 -4 11 -10z m-497 -40 c7 0
17 -12 23 -27 9 -23 7 -30 -10 -44 -23 -18 -66 -20 -66 -2 0 6 -3 14 -6 17 -3
3 -4 20 -1 37 4 26 8 30 26 25 11 -3 27 -6 34 -6z m132 -50 c0 -5 -2 -10 -4
-10 -3 0 -8 5 -11 10 -3 6 -1 10 4 10 6 0 11 -4 11 -10z m262 -12 c-7 -7 -12
-8 -12 -2 0 14 12 26 19 19 2 -3 -1 -11 -7 -17z m178 -2 c0 -3 -4 -8 -10 -11
-5 -3 -10 -1 -10 4 0 6 5 11 10 11 6 0 10 -2 10 -4z m-486 -21 c3 -8 1 -15 -4
-15 -6 0 -10 7 -10 15 0 8 2 15 4 15 2 0 6 -7 10 -15z m335 -16 c-25 -16 -33
-9 -13 10 10 10 21 14 23 8 2 -5 -3 -13 -10 -18z m-779 -20 c0 -5 -4 -9 -10
-9 -5 0 -10 7 -10 16 0 8 5 12 10 9 6 -3 10 -10 10 -16z m470 -19 c0 -5 -2
-10 -4 -10 -3 0 -8 5 -11 10 -3 6 -1 10 4 10 6 0 11 -4 11 -10z m-170 -24 c0
-7 -9 -16 -20 -19 -17 -4 -18 -2 -9 14 11 22 29 25 29 5z m40 -37 c0 -27 -2
-29 -27 -23 -45 11 -50 18 -18 24 20 4 30 11 29 23 -1 9 2 14 7 11 5 -3 9 -19
9 -35z m-470 -16 c0 -27 -54 -73 -85 -73 -32 0 -45 27 -31 61 6 15 14 27 18
28 4 1 19 8 34 16 33 17 64 1 64 -32z m265 28 c3 -5 1 -12 -5 -16 -5 -3 -10 1
-10 9 0 18 6 21 15 7z m-431 -74 c12 -19 3 -32 -19 -24 -17 7 -21 51 -3 45 6
-2 16 -12 22 -21z m456 -18 c0 -5 -7 -9 -15 -9 -15 0 -20 12 -9 23 8 8 24 -1
24 -14z m-169 -6 c31 -19 33 -30 6 -47 -24 -15 -51 4 -55 38 -4 31 8 33 49 9z
m186 -31 c-10 -2 -24 1 -30 7 -8 8 -5 11 11 11 12 0 22 6 23 13 0 6 4 3 8 -8
6 -16 4 -21 -12 -23z m173 18 c0 -5 -2 -10 -4 -10 -3 0 -8 5 -11 10 -3 6 -1
10 4 10 6 0 11 -4 11 -10z m-699 -20 c21 -12 25 -30 8 -47 -18 -18 -47 -3 -51
28 -5 31 8 37 43 19z m76 -46 c-9 -9 -28 6 -21 18 4 6 10 6 17 -1 6 -6 8 -13
4 -17z m-259 -3 c-7 -11 -16 -17 -20 -15 -14 9 -9 22 10 27 9 3 18 5 20 6 1 0
-3 -8 -10 -18z m62 -27 c0 -8 -4 -12 -10 -9 -5 3 -10 10 -10 16 0 5 5 9 10 9
6 0 10 -7 10 -16z m38 -23 c3 -8 -1 -12 -9 -9 -7 2 -15 10 -17 17 -3 8 1 12 9
9 7 -2 15 -10 17 -17z m87 9 c3 -5 1 -10 -4 -10 -6 0 -11 5 -11 10 0 6 2 10 4
10 3 0 8 -4 11 -10z m-323 -32 c-15 -15 -26 -4 -18 18 5 13 9 15 18 6 9 -9 9
-15 0 -24z m128 6 c0 -8 -4 -12 -10 -9 -5 3 -10 10 -10 16 0 5 5 9 10 9 6 0
10 -7 10 -16z m50 6 c0 -5 -2 -10 -4 -10 -3 0 -8 5 -11 10 -3 6 -1 10 4 10 6
0 11 -4 11 -10z m480 -10 c0 -5 -2 -10 -4 -10 -3 0 -8 5 -11 10 -3 6 -1 10 4
10 6 0 11 -4 11 -10z m50 -26 c0 -19 -28 -30 -43 -15 -8 8 -5 11 12 11 17 0
22 4 17 16 -3 8 -2 12 4 9 6 -3 10 -13 10 -21z m-484 -21 c14 -19 18 -55 8
-66 -16 -15 -34 8 -34 44 0 43 6 48 26 22z m244 2 c0 -8 -7 -15 -15 -15 -8 0
-15 7 -15 15 0 8 7 15 15 15 8 0 15 -7 15 -15z m-166 -37 c-4 -6 -10 -5 -15 3
-14 22 -10 33 6 19 8 -7 12 -17 9 -22z m209 -11 c-3 -24 0 -39 12 -50 9 -9 11
-17 5 -17 -6 0 -13 7 -16 15 -4 9 -19 15 -38 15 -31 0 -31 0 -7 13 13 6 23 15
22 20 -1 6 19 35 26 37 1 0 -1 -15 -4 -33z m-721 -32 c0 -5 -5 -11 -11 -13 -6
-2 -11 4 -11 13 0 9 5 15 11 13 6 -2 11 -8 11 -13z m366 -77 c18 -37 6 -59
-27 -52 -40 10 -61 34 -61 69 0 17 3 34 6 38 11 10 69 -29 82 -55z m-348 42
c0 -5 -4 -10 -10 -10 -5 0 -10 5 -10 10 0 6 5 10 10 10 6 0 10 -4 10 -10z
m-135 -19 c3 -5 1 -12 -5 -16 -5 -3 -10 1 -10 9 0 18 6 21 15 7z m-87 -25 c3
-12 -1 -17 -10 -14 -7 3 -15 13 -16 22 -3 12 1 17 10 14 7 -3 15 -13 16 -22z
m162 14 c0 -5 -4 -10 -10 -10 -5 0 -10 5 -10 10 0 6 5 10 10 10 6 0 10 -4 10
-10z m90 6 c0 -3 -4 -8 -10 -11 -5 -3 -10 -1 -10 4 0 6 5 11 10 11 6 0 10 -2
10 -4z m-190 -16 c0 -5 -2 -10 -4 -10 -3 0 -8 5 -11 10 -3 6 -1 10 4 10 6 0
11 -4 11 -10z m-10 -31 c0 -14 -17 -10 -23 5 -4 10 -1 13 9 9 7 -3 14 -9 14
-14z m-75 -9 c0 -7 -6 -15 -12 -17 -8 -3 -13 4 -13 17 0 13 5 20 13 18 6 -3
12 -11 12 -18z m128 -5 c8 -19 -13 -31 -24 -14 -13 20 -11 29 5 29 8 0 16 -7
19 -15z m-203 -5 c0 -5 -4 -10 -10 -10 -5 0 -10 5 -10 10 0 6 5 10 10 10 6 0
10 -4 10 -10z m415 -20 c3 -5 2 -10 -4 -10 -5 0 -13 5 -16 10 -3 6 -2 10 4 10
5 0 13 -4 16 -10z m-315 -15 c0 -8 -4 -15 -10 -15 -5 0 -10 7 -10 15 0 8 5 15
10 15 6 0 10 -7 10 -15z m180 -14 c7 -14 7 -22 -1 -27 -13 -8 -41 24 -33 37 9
15 23 10 34 -10z m-76 -22 c-8 -13 -24 -1 -24 18 0 13 3 13 15 3 8 -7 12 -16
9 -21z m233 -16 c-8 -7 -37 9 -31 19 3 5 12 4 20 -3 8 -6 13 -14 11 -16z
m-354 -16 c12 12 55 -19 67 -47 9 -21 9 -34 0 -49 -15 -29 -78 -29 -115 1 -24
19 -26 25 -21 62 8 47 24 61 47 40 8 -8 19 -11 22 -7z m-103 -7 c0 -5 -5 -10
-11 -10 -5 0 -7 5 -4 10 3 6 8 10 11 10 2 0 4 -4 4 -10z m405 -30 c3 -5 1 -10
-4 -10 -6 0 -11 5 -11 10 0 6 2 10 4 10 3 0 8 -4 11 -10z m-80 -39 c-2 -2 -11
3 -19 12 -8 8 -12 17 -9 21 3 3 12 -2 19 -12 7 -9 11 -19 9 -21z m267 17 c-6
-6 -15 -8 -19 -4 -4 4 -1 11 7 16 8 5 17 7 19 4 3 -2 -1 -10 -7 -16z m-112
-31 c0 -20 -21 -37 -45 -37 -36 0 -37 13 -3 32 40 21 48 22 48 5z m-500 -27
c0 -5 -4 -10 -10 -10 -5 0 -10 5 -10 10 0 6 5 10 10 10 6 0 10 -4 10 -10z m85
-60 c3 -5 1 -10 -4 -10 -6 0 -11 5 -11 10 0 6 2 10 4 10 3 0 8 -4 11 -10z m15
-30 c0 -5 -5 -10 -11 -10 -5 0 -7 5 -4 10 3 6 8 10 11 10 2 0 4 -4 4 -10z"/>
<path d="M3725 4370 c3 -5 10 -10 16 -10 5 0 9 5 9 10 0 6 -7 10 -16 10 -8 0
-12 -4 -9 -10z"/>
<path d="M674 2707 c-10 -12 -12 -17 -5 -10 7 6 20 9 27 6 8 -3 14 0 14 5 0
21 -18 21 -36 -1z"/>
<path d="M490 2439 c0 -5 5 -7 10 -4 6 3 10 8 10 11 0 2 -4 4 -10 4 -5 0 -10
-5 -10 -11z"/>
<path d="M1725 5061 c-6 -11 9 -23 19 -14 9 9 7 23 -3 23 -6 0 -12 -4 -16 -9z"/>
<path d="M1690 5049 c0 -5 5 -7 10 -4 6 3 10 8 10 11 0 2 -4 4 -10 4 -5 0 -10
-5 -10 -11z"/>
<path d="M4150 4859 c0 -5 5 -7 10 -4 6 3 10 8 10 11 0 2 -4 4 -10 4 -5 0 -10
-5 -10 -11z"/>
<path d="M1294 4846 c-8 -22 3 -33 18 -18 9 9 9 15 0 24 -9 9 -13 7 -18 -6z"/>
<path d="M1185 4820 c-7 -12 2 -30 16 -30 5 0 9 9 9 20 0 21 -15 27 -25 10z"/>
<path d="M1300 4801 c0 -5 5 -13 10 -16 6 -3 10 -2 10 4 0 5 -4 13 -10 16 -5
3 -10 2 -10 -4z"/>
<path d="M3669 4790 l-24 -20 28 11 c15 7 27 16 27 21 0 12 -5 10 -31 -12z"/>
<path d="M4015 4790 c-3 -5 -1 -10 4 -10 6 0 11 5 11 10 0 6 -2 10 -4 10 -3 0
-8 -4 -11 -10z"/>
<path d="M1292 4759 c-34 -13 -27 -29 11 -22 17 3 36 9 40 13 13 11 -26 18
-51 9z"/>
<path d="M3631 4753 c0 -12 -4 -30 -7 -40 -5 -17 -5 -17 6 0 6 10 9 28 7 40
-4 22 -4 22 -6 0z"/>
<path d="M3870 4715 c-11 -13 -10 -14 4 -9 9 3 16 10 16 15 0 13 -6 11 -20 -6z"/>
<path d="M680 4589 c0 -5 5 -7 10 -4 6 3 10 8 10 11 0 2 -4 4 -10 4 -5 0 -10
-5 -10 -11z"/>
<path d="M785 4580 c-7 -12 2 -30 16 -30 5 0 9 9 9 20 0 21 -15 27 -25 10z"/>
<path d="M745 4550 c-3 -5 -1 -10 4 -10 6 0 11 5 11 10 0 6 -2 10 -4 10 -3 0
-8 -4 -11 -10z"/>
<path d="M388 4410 c-7 -11 -21 -20 -30 -20 -10 0 -18 -5 -18 -11 0 -6 7 -8
16 -5 9 4 22 2 29 -4 17 -14 43 -3 50 21 13 39 -25 55 -47 19z"/>
<path d="M3280 4400 c0 -5 -7 -10 -15 -10 -8 0 -24 -9 -36 -21 -11 -11 -23
-18 -26 -15 -3 3 -18 -3 -32 -13 -14 -10 -57 -32 -94 -50 -37 -18 -66 -35 -64
-38 5 -4 159 67 167 77 3 4 12 7 20 7 23 0 102 52 95 63 -8 13 -15 13 -15 0z"/>
<path d="M440 4365 c0 -8 5 -15 10 -15 6 0 10 7 10 15 0 8 -4 15 -10 15 -5 0
-10 -7 -10 -15z"/>
<path d="M317 4343 c-12 -11 -8 -23 8 -23 8 0 15 7 15 15 0 16 -12 20 -23 8z"/>
<path d="M2800 4290 c-9 -6 -10 -10 -3 -10 6 0 15 5 18 10 8 12 4 12 -15 0z"/>
<path d="M260 4264 c0 -8 5 -12 10 -9 6 4 8 11 5 16 -9 14 -15 11 -15 -7z"/>
<path d="M305 4270 c4 -6 11 -8 16 -5 14 9 11 15 -7 15 -8 0 -12 -5 -9 -10z"/>
<path d="M2857 4232 c-10 -10 -17 -23 -17 -28 0 -4 7 1 15 13 8 12 25 24 38
26 21 4 21 4 1 6 -11 0 -28 -7 -37 -17z"/>
<path d="M2963 4235 c0 -8 6 -15 13 -15 20 0 26 17 8 24 -21 8 -21 8 -21 -9z"/>
<path d="M134 4219 c-8 -14 11 -33 25 -25 16 10 13 36 -3 36 -8 0 -18 -5 -22
-11z"/>
<path d="M35 4190 c-3 -5 -1 -10 4 -10 6 0 11 5 11 10 0 6 -2 10 -4 10 -3 0
-8 -4 -11 -10z"/>
<path d="M2339 4063 c-36 -45 -55 -79 -51 -91 2 -8 12 3 22 25 9 21 25 47 35
56 9 10 15 20 13 23 -3 2 -11 -4 -19 -13z"/>
<path d="M1650 3819 c0 -5 5 -7 10 -4 6 3 10 8 10 11 0 2 -4 4 -10 4 -5 0 -10
-5 -10 -11z"/>
<path d="M1883 3750 c-11 -16 -10 -18 2 -14 8 4 15 12 15 20 0 19 -3 18 -17
-6z"/>
<path d="M1698 3643 c-10 -2 -18 -9 -18 -14 0 -6 7 -6 18 -1 9 5 24 12 32 15
13 5 13 5 0 5 -8 0 -23 -2 -32 -5z"/>
<path d="M1654 3595 c-10 -26 1 -35 13 -10 6 14 7 25 2 25 -5 0 -12 -7 -15
-15z"/>
<path d="M1490 3518 c-12 -22 -12 -22 6 -6 10 10 15 20 12 24 -4 3 -12 -5 -18
-18z"/>
<path d="M1000 3401 c13 -9 13 -14 0 -38 -12 -21 -26 -30 -55 -34 l-40 -6 38
-2 c25 -1 43 5 58 20 23 23 22 60 -1 66 -13 4 -13 3 0 -6z"/>
<path d="M5080 3337 c0 -7 -29 -25 -65 -42 -35 -16 -64 -36 -65 -42 0 -13 -25
-18 -69 -14 -22 2 -23 1 -7 -15 14 -14 15 -19 4 -25 -7 -5 -21 -6 -30 -3 -10
3 -18 1 -18 -4 0 -18 -66 -50 -93 -45 -28 5 -102 -42 -91 -58 3 -5 -4 -9 -15
-9 -11 0 -28 -11 -39 -25 -21 -27 -37 -33 -29 -12 3 8 -1 14 -9 14 -8 0 -13
-6 -10 -13 6 -15 -31 -26 -61 -18 -17 5 -20 2 -16 -19 4 -22 0 -26 -45 -37
-34 -8 -49 -16 -46 -25 6 -14 -22 -28 -38 -19 -13 8 -69 -16 -62 -28 10 -17
-18 -40 -42 -34 -18 5 -22 3 -17 -9 4 -13 0 -15 -19 -10 -30 8 -89 -15 -121
-47 -13 -13 -39 -30 -58 -39 -19 -9 -46 -22 -61 -29 -16 -7 -28 -17 -28 -22 0
-4 -7 -8 -15 -8 -8 0 -15 -4 -15 -10 0 -5 -7 -10 -16 -10 -22 0 -104 -41 -104
-52 0 -4 -10 -8 -22 -8 -13 0 -34 -9 -48 -20 -14 -11 -32 -20 -42 -20 -9 0
-26 -12 -37 -27 -11 -16 -21 -22 -21 -15 0 10 -4 9 -16 -2 -8 -9 -19 -14 -24
-11 -5 3 -14 -8 -22 -25 -7 -16 -19 -30 -27 -30 -11 0 -11 3 -1 15 10 12 10
15 -4 15 -9 0 -16 -4 -16 -9 0 -5 -13 -12 -29 -16 -18 -4 -31 -14 -34 -27 -5
-18 -9 -19 -21 -9 -12 10 -17 9 -26 -8 -6 -12 -18 -21 -27 -21 -31 0 -102 -42
-96 -57 4 -10 0 -14 -13 -12 -25 4 -64 -10 -64 -22 0 -5 -9 -9 -20 -9 -11 0
-20 -5 -20 -11 0 -7 -10 -9 -25 -5 -20 5 -23 3 -18 -10 5 -13 2 -15 -15 -9
-15 4 -22 2 -22 -8 0 -7 -20 -24 -45 -36 -24 -12 -44 -28 -42 -34 2 -11 -9
-14 -76 -16 -16 -1 -26 -5 -22 -11 3 -5 1 -10 -5 -10 -6 0 -19 -7 -28 -16 -11
-11 -17 -13 -20 -5 -2 6 -13 0 -24 -14 -11 -14 -25 -24 -32 -22 -14 5 -36 -17
-36 -37 0 -9 -7 -16 -16 -16 -8 0 -12 5 -9 10 3 6 2 10 -4 10 -5 0 -13 -4 -16
-10 -3 -6 -18 -10 -33 -10 -15 0 -34 -5 -42 -11 -13 -9 -13 -10 2 -6 9 3 23 0
32 -6 15 -11 15 -14 1 -35 -11 -14 -26 -22 -45 -22 -30 0 -47 14 -30 25 25 15
7 22 -19 7 -20 -11 -26 -19 -18 -24 9 -5 9 -10 -1 -20 -9 -9 -15 -9 -24 0 -16
16 -28 15 -28 -3 0 -8 -8 -14 -17 -13 -10 1 -29 0 -43 -1 -23 -1 -24 -3 -8
-15 10 -7 18 -18 18 -24 0 -18 -40 -34 -74 -29 -21 3 -40 -2 -58 -15 -16 -11
-28 -16 -28 -12 0 4 -9 -1 -20 -11 -11 -10 -20 -14 -21 -9 0 5 -4 -1 -9 -13
-6 -15 -18 -23 -34 -23 -14 0 -27 -4 -31 -9 -3 -5 -19 -12 -35 -16 -17 -4 -30
-11 -30 -16 0 -5 -9 -9 -20 -9 -11 0 -20 -5 -20 -11 0 -5 -5 -7 -11 -4 -6 4
-13 -1 -15 -12 -3 -12 -25 -25 -65 -37 -33 -11 -70 -30 -83 -43 -14 -13 -30
-21 -39 -17 -8 3 -24 -4 -36 -17 -12 -13 -21 -19 -21 -14 0 4 -8 1 -18 -8 -10
-10 -22 -14 -26 -10 -4 5 -13 0 -20 -10 -7 -9 -25 -18 -40 -19 -15 -1 -32 -10
-36 -19 -9 -15 -61 -34 -86 -30 -7 1 -14 -8 -17 -20 -4 -16 -10 -19 -28 -14
-18 6 -21 4 -16 -9 4 -10 1 -16 -8 -16 -8 0 -22 -13 -31 -29 -18 -30 -48 -42
-96 -35 -15 1 -28 0 -28 -5 0 -10 -92 -56 -106 -53 -6 1 -19 -7 -29 -18 -10
-11 -25 -20 -34 -20 -9 0 -24 -9 -34 -20 -9 -11 -25 -20 -36 -20 -11 0 -21 -6
-23 -12 -3 -7 -11 -13 -19 -14 -8 0 -25 -2 -38 -2 -16 -2 -21 -6 -17 -17 8
-21 -8 -19 -29 5 -10 11 -25 20 -33 20 -10 0 -7 -8 11 -24 25 -23 26 -26 11
-55 -24 -49 -61 -72 -113 -70 -54 1 -81 -4 -101 -16 -15 -10 -34 -15 -57 -17
-7 -1 -13 -5 -13 -10 0 -4 -7 -8 -15 -8 -8 0 -15 6 -15 12 0 7 -11 -4 -25 -25
-14 -20 -32 -37 -40 -37 -20 0 -108 -49 -118 -65 -4 -8 -13 -12 -21 -9 -7 3
-19 -2 -26 -11 -9 -11 -22 -14 -45 -9 -19 3 -35 1 -39 -5 -4 -6 -1 -11 6 -11
7 0 19 -4 27 -9 12 -8 12 -13 -2 -34 -24 -37 -54 -43 -82 -17 -23 22 -23 22
-43 2 -10 -10 -33 -25 -50 -33 -18 -8 -32 -20 -32 -26 0 -12 -12 -17 -36 -14
-7 1 -15 -6 -18 -15 -4 -9 -12 -14 -22 -10 -8 3 -12 2 -9 -4 3 -6 -1 -10 -9
-10 -8 0 -18 4 -21 10 -11 18 -23 11 -18 -10 3 -13 -1 -22 -11 -26 -15 -6 -17
-29 -15 -216 1 -199 2 -208 19 -193 10 9 23 36 30 61 12 43 18 48 77 77 49 23
67 27 73 18 5 -9 13 -5 28 16 11 16 33 35 49 43 15 8 34 19 42 24 7 6 19 11
26 12 7 1 26 11 42 22 60 43 93 35 59 -13 -7 -11 -16 -33 -19 -50 -6 -29 -5
-28 9 5 25 57 82 97 99 70 3 -5 12 -7 20 -3 9 3 15 -1 15 -11 0 -9 4 -16 9
-16 16 0 22 -51 11 -86 -28 -85 -145 -101 -157 -21 -4 24 -11 33 -19 24 -4 -3
0 -28 9 -54 12 -36 13 -49 4 -55 -7 -4 -8 -8 -3 -8 5 0 3 -7 -5 -16 -7 -8 -21
-13 -32 -10 -13 3 -21 -1 -24 -15 -5 -17 -11 -19 -44 -14 -35 6 -37 5 -32 -15
8 -30 -23 -60 -63 -60 -18 0 -34 6 -37 13 -3 7 -12 2 -27 -16 -16 -20 -27 -26
-43 -21 -16 5 -19 3 -14 -10 4 -11 1 -15 -11 -14 -41 3 -52 -2 -52 -27 0 -18
-5 -25 -20 -25 -16 0 -20 -7 -20 -35 l0 -35 970 0 c570 0 970 4 970 9 0 5 14
14 32 20 17 6 46 22 64 36 18 14 38 25 45 25 7 0 20 7 30 16 15 14 23 14 53 3
32 -11 40 -11 66 5 17 9 34 15 39 12 5 -4 7 3 4 13 -5 21 58 91 81 91 8 0 29
13 49 29 20 15 63 36 96 45 32 9 64 23 71 31 7 8 18 15 24 15 7 0 17 5 24 12
21 21 57 18 68 -5 12 -28 50 -34 76 -10 16 14 19 25 14 55 -6 34 -3 39 23 53
17 8 37 15 47 15 9 0 33 12 53 27 47 36 95 63 113 63 7 0 21 9 31 20 9 11 28
20 41 20 22 0 49 17 58 38 5 12 77 52 94 52 8 0 46 16 85 35 69 35 89 37 89
10 0 -20 40 -44 75 -46 58 -3 76 1 100 26 27 26 33 74 16 133 -9 31 -8 33 12
30 14 -2 22 2 22 12 0 16 20 28 49 29 13 1 16 -4 12 -15 -10 -27 21 -64 54
-64 53 0 83 83 40 113 -19 14 -19 14 6 26 15 6 29 9 32 7 10 -11 41 15 36 29
-4 8 -1 15 5 15 6 0 11 -4 11 -10 0 -5 5 -10 11 -10 6 0 9 7 5 15 -4 11 1 15
18 15 13 0 33 9 46 20 13 11 33 20 45 20 12 0 30 9 39 19 10 11 30 22 44 26
15 3 53 24 85 46 32 21 63 39 69 39 6 0 20 7 30 16 14 14 20 14 33 4 12 -10
16 -8 25 14 11 29 26 32 54 11 25 -19 63 -19 139 1 76 19 145 75 177 144 13
27 31 52 41 55 10 3 21 15 24 26 5 16 14 19 43 17 21 -2 37 -9 40 -18 5 -13 3
-13 -11 -1 -15 12 -17 11 -17 -7 0 -26 25 -35 45 -16 19 19 19 20 -5 42 -20
18 -20 19 20 41 l40 22 10 -26 c22 -58 84 -31 78 35 -3 31 0 35 22 38 13 2 33
10 44 18 14 10 23 11 33 2 11 -9 13 68 13 441 l0 451 -39 0 c-39 0 -68 20 -56
40 3 5 -1 10 -9 10 -19 0 -22 30 -3 31 6 0 2 4 -10 9 -33 13 -45 68 -21 99 11
15 16 32 13 45 -5 16 -4 18 4 7 8 -12 12 -12 25 -2 9 7 14 16 12 20 -6 9 16
35 33 39 7 1 19 -3 27 -9 17 -14 29 -6 21 16 -8 19 -59 20 -95 1 -46 -24 -62
-50 -77 -132 -9 -43 -21 -84 -28 -90 -20 -20 -129 -74 -146 -74 -10 0 -35 -16
-56 -36 -22 -20 -41 -31 -43 -26 -2 6 -19 0 -38 -13 -20 -14 -42 -21 -55 -18
-18 5 -19 2 -13 -22 6 -25 5 -27 -16 -20 -19 6 -21 4 -15 -14 10 -32 -10 -25
-39 14 -15 19 -35 34 -44 34 -16 -1 -16 -2 0 -6 26 -7 34 -44 12 -60 -24 -17
-44 -17 -44 2 0 8 -4 15 -9 15 -4 0 -6 -11 -4 -24 4 -18 -1 -27 -24 -38 -15
-8 -37 -19 -48 -26 -11 -6 -54 -26 -96 -44 -41 -18 -74 -38 -72 -44 2 -5 -12
-10 -31 -10 -25 0 -40 -7 -54 -24 -19 -24 -21 -24 -39 -7 -11 9 -28 17 -39 17
-18 -1 -18 -1 -1 -11 25 -15 21 -48 -9 -61 -21 -10 -27 -9 -35 3 -5 8 -7 20
-4 27 2 6 0 12 -5 12 -6 0 -10 -14 -10 -31 0 -23 -4 -30 -14 -26 -15 6 -66
-34 -66 -51 0 -14 -34 -9 -43 6 -7 10 -12 10 -23 1 -8 -6 -14 -17 -14 -23 0
-21 -67 -49 -99 -43 -37 8 -51 -8 -16 -17 49 -12 23 -106 -29 -106 -20 0 -37
40 -29 70 4 16 3 21 -5 16 -7 -4 -12 -13 -12 -20 0 -20 -47 -59 -64 -53 -9 4
-28 -5 -45 -18 -16 -14 -36 -25 -44 -25 -13 0 -14 5 -5 31 23 67 -18 163 -75
171 -32 5 -31 25 3 39 16 8 30 17 30 21 0 5 7 8 15 8 8 0 15 5 15 10 0 6 9 10
20 10 10 0 25 6 32 13 7 8 20 12 30 9 10 -2 18 1 18 7 0 6 9 11 20 11 11 0 20
5 20 10 0 6 6 10 14 10 8 0 16 5 18 11 2 6 18 12 36 14 18 1 35 5 39 8 10 11
33 -14 33 -35 0 -32 88 -60 135 -42 42 17 59 112 25 141 -29 25 -25 42 15 59
19 8 35 19 35 24 0 5 7 7 16 3 10 -4 20 0 26 10 5 10 15 17 22 17 8 0 16 7 20
15 3 8 12 15 21 15 8 0 15 5 15 10 0 6 7 10 16 10 9 0 32 9 50 21 19 11 34 18
34 14 0 -3 12 2 28 13 34 24 175 92 191 92 6 0 11 5 11 10 0 21 37 9 48 -15
13 -29 43 -33 66 -9 21 20 20 38 -1 59 -16 16 -15 18 7 35 14 10 27 17 31 14
4 -2 27 7 51 21 23 14 53 25 66 25 12 0 31 9 42 20 17 17 20 18 20 4 0 -13 6
-10 25 10 14 15 25 32 25 39 0 7 4 6 10 -3 6 -9 10 -10 10 -3 0 13 52 44 198
119 77 39 95 45 103 33 5 -8 9 -11 10 -6 1 4 3 12 4 17 1 6 3 13 4 16 0 4 7 1
15 -5 21 -17 27 33 25 217 -1 149 -2 160 -20 165 -11 3 -19 0 -19 -6z m-45
-67 c3 -5 -3 -10 -15 -10 -12 0 -18 5 -15 10 3 6 10 10 15 10 5 0 12 -4 15
-10z m-281 -148 c14 -23 -48 -59 -70 -41 -18 15 -18 29 1 29 8 0 15 5 15 10 0
12 47 14 54 2z m256 -132 c0 -5 -5 -10 -11 -10 -5 0 -7 5 -4 10 3 6 8 10 11
10 2 0 4 -4 4 -10z m-665 -80 c3 -5 -3 -10 -15 -10 -12 0 -18 5 -15 10 3 6 10
10 15 10 5 0 12 -4 15 -10z m-65 -70 c-8 -5 -17 -7 -19 -4 -3 3 1 9 9 14 8 5
17 7 19 4 3 -3 -1 -9 -9 -14z m-100 -24 c0 -35 -68 -63 -85 -36 -9 15 12 38
38 43 41 8 47 7 47 -7z m320 -86 c0 -5 -7 -10 -16 -10 -8 0 -12 5 -9 10 3 6
10 10 16 10 5 0 9 -4 9 -10z m-30 -115 c10 -13 10 -19 -5 -35 -23 -25 -32 -25
-45 1 -20 37 23 66 50 34z m-795 -55 c3 -5 1 -10 -4 -10 -6 0 -11 5 -11 10 0
6 2 10 4 10 3 0 8 -4 11 -10z m265 -115 c0 -8 -9 -15 -20 -15 -20 0 -26 11
-13 23 12 13 33 7 33 -8z m710 -34 c0 -4 -3 -11 -7 -14 -8 -9 -34 13 -28 24 6
9 35 1 35 -10z m49 -50 c11 -20 5 -31 -16 -31 -7 0 -13 11 -13 25 0 29 15 33
29 6z m-944 0 c3 -5 1 -12 -5 -16 -5 -3 -10 1 -10 9 0 18 6 21 15 7z m1249
-17 c5 -14 4 -15 -9 -4 -17 14 -19 20 -6 20 5 0 12 -7 15 -16z m-424 -39 c10
-12 10 -19 1 -28 -9 -9 -14 -9 -21 3 -22 34 -4 54 20 25z m-179 -20 c-1 -15
-24 -12 -29 3 -3 9 2 13 12 10 10 -1 17 -7 17 -13z m-563 -18 c47 -22 10 -117
-47 -117 -44 0 -71 25 -67 65 4 60 52 82 114 52z m938 -52 c-5 -15 -66 -7 -66
9 0 6 12 19 28 28 26 16 27 16 35 -4 4 -12 6 -27 3 -33z m-476 1 c-8 -8 -13
-7 -20 4 -12 20 -1 33 16 19 11 -9 12 -15 4 -23z m-46 -71 c31 -27 30 -55 -3
-55 -22 0 -41 27 -41 59 0 27 9 26 44 -4z m211 5 c3 -5 -1 -10 -10 -10 -9 0
-13 5 -10 10 3 6 8 10 10 10 2 0 7 -4 10 -10z m20 -29 c-3 -6 -11 -11 -17 -11
-6 0 -6 6 2 15 14 17 26 13 15 -4z m-345 -31 c26 -26 25 -30 -4 -30 -22 0 -36
16 -36 41 0 15 19 10 40 -11z m-50 -76 c0 -8 -4 -12 -10 -9 -5 3 -10 13 -10
21 0 8 5 12 10 9 6 -3 10 -13 10 -21z m150 -5 c0 -5 -4 -9 -10 -9 -5 0 -10 7
-10 16 0 8 5 12 10 9 6 -3 10 -10 10 -16z m-904 -14 c6 -15 25 -21 23 -7 -4
21 3 23 21 7 11 -10 17 -22 13 -27 -3 -6 0 -14 7 -18 23 -14 2 -79 -39 -123
-35 -37 -43 -41 -98 -45 -51 -4 -64 -1 -80 15 -56 56 22 205 110 211 26 1 39
-3 43 -13z m-176 -81 c-33 -76 -11 -138 59 -165 23 -9 23 -10 -21 -42 -41 -29
-56 -63 -22 -50 24 9 18 -54 -7 -68 -25 -13 -41 -2 -44 33 -1 13 -3 26 -4 30
0 3 -25 -6 -55 -22 -29 -16 -56 -27 -59 -24 -3 3 -16 -6 -30 -20 -15 -14 -32
-26 -39 -26 -8 1 -7 5 5 14 16 12 24 36 11 36 -10 0 -34 -28 -34 -40 0 -6 -20
-19 -44 -29 -24 -11 -53 -29 -64 -41 -13 -14 -22 -18 -27 -11 -9 15 -25 14
-25 -2 0 -14 -107 -67 -137 -67 -11 0 -26 -7 -33 -15 -7 -8 -22 -15 -34 -15
-23 0 -61 -20 -38 -20 7 0 10 -5 6 -11 -3 -6 -16 -8 -29 -5 -17 4 -22 2 -21
-11 1 -18 -48 -36 -77 -27 -18 6 -87 -33 -87 -48 0 -5 -7 -8 -15 -8 -8 0 -15
-4 -15 -10 0 -15 16 -12 30 5 7 8 18 15 25 15 7 0 18 7 25 15 14 17 40 20 40
5 0 -5 -7 -10 -15 -10 -8 0 -31 -11 -51 -25 -36 -25 -81 -34 -69 -15 3 6 1 10
-4 10 -6 0 -12 -12 -12 -27 -1 -17 -3 -21 -6 -10 -2 9 -9 17 -15 17 -5 0 -8
-6 -5 -13 6 -16 -29 -41 -44 -31 -5 3 -22 -3 -37 -13 -15 -10 -36 -20 -46 -23
-11 -3 -22 -12 -24 -19 -3 -9 0 -11 8 -6 9 6 11 4 5 -4 -4 -8 -17 -10 -34 -7
-16 4 -21 3 -13 -2 20 -13 -8 -32 -39 -27 -13 2 -30 1 -37 -4 -17 -10 -12 -45
6 -47 6 -1 17 -2 22 -3 18 -2 11 -60 -10 -81 -39 -39 -109 -13 -82 31 11 17 9
19 -10 21 -44 3 -60 -2 -78 -24 -15 -19 -20 -20 -34 -9 -21 17 -33 7 -16 -14
13 -16 7 -45 -9 -45 -5 0 -19 29 -31 65 -22 65 -56 105 -90 105 -22 0 -82 -41
-88 -60 -3 -8 8 -2 23 13 16 15 34 26 41 23 6 -2 16 0 21 5 16 16 63 -36 63
-71 0 -41 -39 -81 -71 -73 -32 8 -69 42 -69 65 0 10 -4 18 -10 18 -16 0 -11
-25 10 -53 11 -14 20 -31 20 -39 0 -8 5 -19 10 -24 8 -8 6 -15 -5 -24 -10 -8
-15 -9 -15 -1 0 24 -19 10 -22 -16 -3 -29 -22 -35 -61 -18 -14 6 -20 2 -24
-14 -6 -23 -23 -27 -41 -9 -9 9 -12 9 -12 -3 0 -8 -27 -29 -60 -47 -33 -18
-62 -37 -65 -42 -3 -5 7 -15 22 -22 36 -17 55 -80 31 -104 -22 -22 -72 -10
-86 20 -11 25 -6 62 11 84 6 8 6 12 -2 12 -7 0 -9 5 -5 11 4 7 -7 4 -25 -7
-17 -10 -31 -22 -31 -26 0 -4 -8 -8 -18 -8 -25 0 -61 -30 -44 -36 15 -7 16
-30 2 -39 -15 -9 -42 15 -36 32 9 23 -9 14 -19 -9 -6 -15 -19 -23 -35 -24 -14
-1 -42 -11 -64 -23 -28 -16 -47 -20 -70 -15 -27 6 -29 5 -17 -10 21 -25 6 -66
-23 -66 -14 0 -26 5 -28 11 -2 7 -13 9 -26 5 -16 -5 -22 -15 -22 -36 0 -36
-14 -45 -41 -27 -23 16 -50 8 -83 -26 -22 -21 -36 -14 -36 20 0 40 -56 130
-86 137 -28 7 -28 29 2 35 10 2 32 13 49 25 16 12 41 27 55 33 38 16 90 41
140 68 26 15 62 25 86 25 44 0 61 10 88 53 10 16 32 35 51 42 18 8 35 23 38
35 3 11 10 20 16 20 17 0 13 -31 -6 -46 -11 -8 -13 -13 -5 -14 7 0 21 14 31
31 23 38 68 69 99 69 12 0 22 5 22 10 0 6 8 10 19 10 10 0 24 7 31 15 7 8 23
15 36 15 13 0 24 5 24 10 0 6 9 10 20 10 10 0 24 9 30 19 6 13 17 17 30 14 11
-3 20 0 20 6 0 6 6 11 13 11 7 0 62 25 122 55 61 30 117 55 126 55 8 0 24 7
35 15 29 22 64 19 64 -5 0 -56 91 -81 144 -39 49 39 69 105 46 149 -8 16 -6
22 10 32 11 7 20 18 20 25 0 7 6 13 14 13 7 0 19 7 26 15 7 9 19 14 26 11 7
-2 20 4 30 15 12 13 21 16 29 9 14 -12 26 -3 19 14 -4 11 89 66 113 66 6 0 16
-13 21 -30 14 -40 54 -50 90 -23 27 20 43 73 23 73 -6 0 -11 11 -11 25 0 19 8
28 34 39 18 8 37 19 41 25 4 7 15 9 26 6 10 -4 19 -2 19 4 0 6 7 8 15 5 9 -4
15 0 15 10 0 9 7 16 15 16 8 0 15 5 15 10 0 6 6 10 13 10 7 0 22 8 33 18 31
29 55 34 82 16 35 -23 106 -14 160 20 32 20 50 41 67 80 18 40 32 57 59 70 22
10 34 22 30 28 -5 7 0 9 15 5 16 -4 32 4 59 29 20 19 45 34 54 34 9 0 20 5 24
11 4 7 10 7 16 1 6 -6 2 -27 -12 -58z m645 36 c3 -5 1 -10 -4 -10 -6 0 -11 5
-11 10 0 6 2 10 4 10 3 0 8 -4 11 -10z m82 -38 c7 -7 13 -25 13 -38 0 -20 -4
-25 -22 -22 -17 2 -24 13 -30 43 -11 50 -2 80 15 50 6 -11 17 -26 24 -33z
m383 17 c11 -19 9 -20 -31 -17 -46 3 -64 24 -27 31 43 8 47 7 58 -14z m-1422
-83 c39 3 41 -3 5 -17 l-28 -11 23 -18 c12 -10 22 -23 22 -28 0 -10 -86 -72
-100 -72 -3 0 -12 9 -20 20 -8 11 -22 20 -32 20 -18 0 -18 1 9 49 2 2 9 -2 17
-9 9 -6 21 -10 28 -7 8 3 1 9 -15 16 -16 6 -27 17 -25 24 5 16 71 49 78 38 3
-4 20 -7 38 -5z m472 -191 c7 -9 10 -19 6 -22 -8 -9 -38 9 -44 25 -5 17 23 15
38 -3z m-61 -8 c6 -8 8 -17 4 -20 -11 -12 -21 -7 -26 13 -6 23 5 26 22 7z
m-1319 -6 c0 -12 -20 -25 -27 -18 -7 7 6 27 18 27 5 0 9 -4 9 -9z m1710 -26
c17 -20 8 -27 -24 -19 -26 6 -32 15 -19 27 11 12 30 8 43 -8z m1320 -55 c0 -5
-4 -10 -10 -10 -5 0 -10 5 -10 10 0 6 5 10 10 10 6 0 10 -4 10 -10z m-2820
-24 c0 -3 -4 -8 -10 -11 -5 -3 -10 -1 -10 4 0 6 5 11 10 11 6 0 10 -2 10 -4z
m216 -13 c21 -28 17 -58 -10 -72 -39 -21 -66 -6 -66 38 0 21 3 41 7 44 13 13
56 7 69 -10z m599 -17 c14 -10 28 -25 31 -34 3 -9 10 -25 15 -34 15 -29 10
-48 -20 -79 -22 -22 -39 -29 -68 -29 -66 0 -84 9 -76 38 5 23 3 24 -20 20 -23
-4 -25 -3 -17 13 6 10 8 24 5 31 -7 18 17 65 41 83 24 17 76 13 109 -9z m319
-31 c3 -9 0 -15 -9 -15 -16 0 -27 14 -18 24 10 10 21 7 27 -9z m1244 -51 c2
-17 -2 -21 -25 -19 -58 4 -57 4 -38 25 24 26 59 22 63 -6z m-1808 -16 c0 -16
-3 -19 -11 -11 -6 6 -8 16 -5 22 11 17 16 13 16 -11z m599 -9 c-24 -15 -30
-10 -11 9 9 10 19 14 21 9 2 -5 -3 -13 -10 -18z m-1309 11 c0 -5 -4 -10 -10
-10 -5 0 -10 5 -10 10 0 6 5 10 10 10 6 0 10 -4 10 -10z m570 -81 c0 -5 -4 -9
-10 -9 -5 0 -10 7 -10 16 0 8 5 12 10 9 6 -3 10 -10 10 -16z m-650 -33 c22 -4
33 -62 18 -93 -14 -29 -51 -58 -85 -68 -17 -5 -29 1 -48 21 -29 32 -32 64 -7
107 24 44 32 48 72 41 19 -3 42 -7 50 -8z m940 -52 c0 -8 -4 -12 -10 -9 -5 3
-10 10 -10 16 0 5 5 9 10 9 6 0 10 -7 10 -16z m-1340 -48 c0 -3 -4 -8 -10 -11
-5 -3 -10 -1 -10 4 0 6 5 11 10 11 6 0 10 -2 10 -4z m840 -28 c0 -35 11 -68
22 -68 6 0 7 8 3 18 -4 9 -10 26 -12 37 -5 17 -3 17 12 -4 14 -18 19 -20 26
-10 6 10 9 10 9 2 0 -6 -5 -15 -11 -18 -7 -5 -5 -13 7 -26 37 -41 -9 -89 -71
-73 -25 6 -35 24 -14 24 8 0 8 5 -1 15 -10 13 -9 15 9 15 12 0 21 6 21 14 0
11 -10 14 -37 11 -21 -3 -30 -2 -20 1 19 6 22 19 7 29 -14 9 -12 21 6 39 22
23 44 20 44 -6z m-755 3 c7 -12 -12 -24 -25 -16 -11 7 -4 25 10 25 5 0 11 -4
15 -9z m1150 -41 c3 -5 1 -10 -4 -10 -6 0 -11 5 -11 10 0 6 2 10 4 10 3 0 8
-4 11 -10z m-615 -10 c0 -5 -7 -10 -15 -10 -8 0 -15 5 -15 10 0 6 7 10 15 10
8 0 15 -4 15 -10z m20 -55 c0 -8 -4 -15 -9 -15 -13 0 -22 16 -14 24 11 11 23
6 23 -9z m-1020 -81 c0 -8 -4 -12 -10 -9 -5 3 -10 10 -10 16 0 5 5 9 10 9 6 0
10 -7 10 -16z m963 -60 c-8 -13 -16 -24 -17 -24 -1 0 1 57 3 66 0 4 8 1 16 -6
12 -10 12 -15 -2 -36z m42 -34 c-3 -6 -16 -10 -28 -10 -20 1 -21 2 -4 14 9 7
17 19 17 27 1 10 4 9 11 -4 5 -9 7 -22 4 -27z m1605 25 c0 -8 -7 -15 -15 -15
-8 0 -15 7 -15 15 0 8 7 15 15 15 8 0 15 -7 15 -15z m-263 -67 c0 -7 4 -21 8
-30 9 -22 -12 -23 -39 -3 -16 12 -17 17 -6 30 15 18 36 20 37 3z m-1392 -18
c3 -5 1 -10 -4 -10 -6 0 -11 5 -11 10 0 6 2 10 4 10 3 0 8 -4 11 -10z m-1176
-19 c9 -16 6 -20 -16 -26 -30 -7 -48 6 -40 29 9 22 44 20 56 -3z m968 -37 c-9
-9 -28 6 -21 18 4 6 10 6 17 -1 6 -6 8 -13 4 -17z m-446 -4 c22 -12 25 -36 5
-43 -10 -4 -18 4 -25 24 -11 32 -9 34 20 19z m474 -19 c-3 -6 -14 -11 -23 -11
-15 1 -15 2 2 15 21 16 32 13 21 -4z m-105 -7 c0 -8 -4 -12 -10 -9 -5 3 -10
10 -10 16 0 5 5 9 10 9 6 0 10 -7 10 -16z m-140 -18 c0 -13 -7 -27 -16 -30 -8
-3 -12 -2 -9 3 3 5 1 12 -4 16 -14 8 -2 35 15 35 8 0 14 -10 14 -24z m-140
-46 c0 -5 -4 -10 -10 -10 -5 0 -10 5 -10 10 0 6 5 10 10 10 6 0 10 -4 10 -10z
m190 -14 c0 -16 -7 -27 -20 -31 -38 -12 -54 17 -22 41 26 20 42 17 42 -10z
m-250 -106 c0 -11 -7 -20 -15 -20 -15 0 -21 21 -8 33 12 13 23 7 23 -13z
m-452 -7 c5 -10 7 -24 5 -31 -7 -18 -33 5 -33 29 0 24 16 25 28 2z m149 -30
c36 -40 44 -87 17 -97 -18 -7 -54 10 -54 26 0 6 3 8 7 5 3 -4 12 1 19 11 15
20 18 36 5 28 -24 -15 -56 20 -45 49 9 22 15 19 51 -22z m353 -38 c0 -9 -9
-15 -24 -15 -35 0 -42 18 -9 23 16 2 29 5 31 6 1 0 2 -6 2 -14z m-1300 -4 c0
-5 -6 -14 -14 -20 -16 -13 -32 2 -21 19 8 12 35 13 35 1z m608 -34 c2 -10 -3
-17 -12 -17 -10 0 -16 9 -16 21 0 24 23 21 28 -4z m216 -78 c-3 -5 -12 -9 -20
-9 -14 0 -20 31 -7 44 9 9 34 -24 27 -35z m336 31 c0 -5 -4 -10 -10 -10 -5 0
-10 5 -10 10 0 6 5 10 10 10 6 0 10 -4 10 -10z m1340 -11 c0 -5 -4 -9 -10 -9
-5 0 -10 7 -10 16 0 8 5 12 10 9 6 -3 10 -10 10 -16z m-1962 -47 c6 -18 -15
-14 -22 4 -4 10 -1 14 6 12 6 -2 14 -10 16 -16z m302 -7 c0 -15 -6 -25 -14
-25 -11 0 -12 5 -3 25 15 31 17 31 17 0z m-410 -85 c0 -5 -2 -10 -4 -10 -3 0
-8 5 -11 10 -3 6 -1 10 4 10 6 0 11 -4 11 -10z m170 -5 c0 -8 -4 -15 -10 -15
-5 0 -10 7 -10 15 0 8 5 15 10 15 6 0 10 -7 10 -15z m40 -40 c0 -9 -9 -15 -22
-15 -21 0 -21 0 -2 15 24 18 24 18 24 0z m1340 -20 c0 -8 -7 -15 -15 -15 -26
0 -18 20 13 29 1 1 2 -6 2 -14z m-1550 -40 c0 -8 -7 -15 -15 -15 -16 0 -20 12
-8 23 11 12 23 8 23 -8z m-430 -41 c0 -8 -5 -12 -10 -9 -6 4 -8 11 -5 16 9 14
15 11 15 -7z m255 -14 c0 -22 -29 -18 -33 3 -3 14 1 18 15 15 10 -2 18 -10 18
-18z m50 -49 c-3 -6 -17 -11 -31 -11 -14 0 -23 4 -19 10 3 5 12 7 19 4 8 -3
17 0 21 6 4 6 9 9 12 6 3 -2 2 -9 -2 -15z"/>
<path d="M2917 1719 c7 -7 15 -10 18 -7 3 3 -2 9 -12 12 -14 6 -15 5 -6 -5z"/>
<path d="M2165 1410 c3 -5 12 -10 20 -10 21 0 27 -17 14 -42 -11 -21 -11 -22
4 -9 20 16 22 42 5 59 -14 14 -52 16 -43 2z"/>
<path d="M1873 1025 c2 -5 10 -10 17 -10 7 0 15 5 17 10 2 6 -6 11 -17 11 -11
0 -19 -5 -17 -11z"/>
<path d="M1306 885 c4 -8 8 -15 10 -15 2 0 4 7 4 15 0 8 -4 15 -10 15 -5 0 -7
-7 -4 -15z"/>
<path d="M1290 850 c-9 -6 -10 -10 -3 -10 6 0 15 5 18 10 8 12 4 12 -15 0z"/>
<path d="M3860 1890 c0 -5 5 -10 10 -10 6 0 10 5 10 10 0 6 -4 10 -10 10 -5 0
-10 -4 -10 -10z"/>
<path d="M2910 1500 c0 -5 5 -10 11 -10 5 0 7 5 4 10 -3 6 -8 10 -11 10 -2 0
-4 -4 -4 -10z"/>
<path d="M2960 1480 c0 -5 5 -10 10 -10 6 0 10 5 10 10 0 6 -4 10 -10 10 -5 0
-10 -4 -10 -10z"/>
<path d="M2920 1455 c0 -14 2 -25 4 -25 2 0 6 11 8 25 3 14 1 25 -3 25 -5 0
-9 -11 -9 -25z"/>
<path d="M2838 1453 c7 -3 16 -2 19 1 4 3 -2 6 -13 5 -11 0 -14 -3 -6 -6z"/>
<path d="M1131 3311 c-8 -5 -9 -11 -3 -15 5 -3 15 1 22 9 14 16 3 20 -19 6z"/>
<path d="M926 3233 c-7 -21 -18 -28 -39 -24 -5 1 -6 -3 -2 -9 16 -26 63 12 52
43 -2 7 -7 2 -11 -10z"/>
<path d="M968 3183 c-10 -2 -18 -9 -18 -14 0 -14 16 -11 30 6 7 8 11 14 9 14
-2 -1 -12 -3 -21 -6z"/>
<path d="M4748 3163 c7 -3 16 -2 19 1 4 3 -2 6 -13 5 -11 0 -14 -3 -6 -6z"/>
<path d="M683 3145 c-3 -9 -3 -18 -1 -21 3 -3 8 4 11 16 6 23 -1 27 -10 5z"/>
<path d="M873 3133 c-21 -8 -15 -22 7 -16 11 3 20 9 20 14 0 10 -8 10 -27 2z"/>
<path d="M680 3030 c-14 -11 -20 -20 -15 -19 13 0 50 28 44 33 -2 3 -15 -4
-29 -14z"/>
<path d="M590 2990 c-13 -8 -12 -10 3 -10 9 0 17 5 17 10 0 12 -1 12 -20 0z"/>
<path d="M248 2948 c18 -18 15 -53 -6 -71 -22 -20 -63 -22 -80 -5 -7 7 -12 9
-12 5 0 -3 11 -14 24 -22 22 -14 28 -14 60 -1 23 9 37 23 41 39 7 28 -9 67
-27 67 -9 0 -9 -3 0 -12z"/>
<path d="M277 2813 c-13 -13 -7 -21 13 -16 11 3 17 9 14 14 -6 11 -18 12 -27
2z"/>
<path d="M5075 2800 c-4 -6 -11 -7 -17 -4 -7 4 -8 2 -4 -4 9 -14 33 -16 41 -3
3 5 1 12 -4 15 -5 4 -12 2 -16 -4z"/>
<path d="M1 2693 c-1 -67 2 -74 18 -44 7 13 6 32 -3 62 l-14 44 -1 -62z"/>
<path d="M40 2690 c0 -5 5 -10 11 -10 5 0 7 5 4 10 -3 6 -8 10 -11 10 -2 0 -4
-4 -4 -10z"/>
<path d="M4594 2688 c-4 -7 -3 -8 5 -4 16 10 51 -3 51 -19 0 -8 -12 -21 -27
-29 -25 -13 -26 -15 -7 -16 19 0 54 27 54 43 0 3 -7 13 -16 21 -18 19 -50 21
-60 4z"/>
<path d="M4559 2665 c-12 -11 3 -45 20 -45 10 0 12 3 5 8 -7 4 -13 15 -15 25
-2 11 -7 16 -10 12z"/>
<path d="M3520 2540 c0 -5 5 -10 10 -10 6 0 10 5 10 10 0 6 -4 10 -10 10 -5 0
-10 -4 -10 -10z"/>
<path d="M4635 2500 c-3 -5 -1 -10 4 -10 6 0 11 5 11 10 0 6 -2 10 -4 10 -3 0
-8 -4 -11 -10z"/>
<path d="M4318 2455 c-5 -25 -4 -25 10 -11 12 11 13 19 5 27 -7 7 -12 3 -15
-16z"/>
<path d="M4250 2442 c0 -12 19 -26 26 -19 2 2 -2 10 -11 17 -9 8 -15 8 -15 2z"/>
<path d="M4114 2369 c-4 -7 0 -9 13 -5 29 9 56 -15 48 -45 -8 -34 -39 -53 -65
-39 -12 7 -20 7 -20 1 0 -17 38 -23 62 -10 29 15 38 28 38 55 0 38 -58 71 -76
43z"/>
<path d="M2950 2210 c0 -5 5 -10 10 -10 6 0 10 5 10 10 0 6 -4 10 -10 10 -5 0
-10 -4 -10 -10z"/>
<path d="M3576 2135 c4 -8 8 -15 10 -15 2 0 4 7 4 15 0 8 -4 15 -10 15 -5 0
-7 -7 -4 -15z"/>
<path d="M3445 1860 c-3 -5 -1 -10 4 -10 6 0 11 5 11 10 0 6 -2 10 -4 10 -3 0
-8 -4 -11 -10z"/>
<path d="M5097 1542 c-10 -10 -17 -29 -17 -42 0 -12 -7 -28 -16 -35 -13 -9
-14 -16 -5 -33 13 -24 -5 -44 -20 -21 -6 11 -13 9 -31 -8 -15 -14 -31 -20 -44
-17 -12 3 -26 -1 -34 -11 -11 -13 -10 -15 4 -9 9 3 16 1 16 -5 0 -6 -4 -11
-10 -11 -5 0 -10 -8 -10 -17 -1 -17 -1 -17 -14 0 -14 18 -36 23 -36 8 0 -6 5
-13 10 -16 16 -10 12 -25 -5 -19 -9 4 -15 0 -15 -7 0 -11 -2 -11 -10 1 -8 12
-13 13 -30 3 -11 -7 -27 -13 -35 -13 -8 0 -20 -9 -27 -20 -7 -11 -18 -20 -24
-20 -6 0 -27 -11 -47 -24 -19 -13 -49 -27 -66 -31 -17 -4 -31 -11 -31 -16 0
-5 -8 -9 -18 -9 -11 0 -29 -9 -41 -19 -13 -11 -27 -21 -32 -23 -6 -2 -11 -11
-13 -20 -3 -26 -15 -33 -22 -15 -5 14 -10 13 -42 -7 -66 -41 -85 -50 -77 -34
6 10 5 11 -6 1 -7 -7 -21 -13 -31 -13 -10 0 -18 -5 -18 -11 0 -6 -9 -8 -20 -4
-14 4 -20 2 -20 -9 0 -10 -6 -13 -15 -10 -8 4 -15 1 -15 -4 0 -6 8 -13 18 -15
13 -4 11 -5 -5 -6 -13 0 -23 -7 -23 -13 0 -8 -5 -6 -11 4 -12 22 -38 13 -49
-18 -6 -14 -21 -26 -37 -30 -15 -3 -32 -12 -38 -18 -16 -20 -48 -28 -56 -15
-9 16 -38 -10 -31 -29 2 -7 -5 -12 -17 -12 -11 0 -23 -5 -26 -10 -3 -6 -15
-10 -27 -10 -14 0 -18 -5 -14 -15 4 -11 -3 -19 -20 -25 -35 -14 -41 -12 -18 4
16 13 17 15 3 21 -8 3 -26 1 -40 -4 -13 -5 -18 -10 -11 -10 22 -2 13 -26 -17
-44 -16 -9 -43 -17 -61 -17 -21 0 -39 -9 -56 -27 -14 -15 -31 -28 -37 -29 -7
0 -21 -2 -32 -3 -16 -1 -17 -3 -6 -10 20 -13 -16 -31 -49 -24 -17 3 -31 -2
-43 -15 -10 -11 -26 -18 -36 -15 -12 3 -20 -2 -24 -16 -4 -15 -12 -20 -29 -19
-16 2 -23 -2 -23 -14 0 -29 -12 -31 -45 -7 -29 22 -33 22 -58 8 -20 -11 -28
-25 -32 -54 -4 -29 -12 -43 -31 -54 -26 -14 -28 -14 -54 17 -36 43 -81 50
-140 22 -82 -40 -128 -94 -148 -176 -9 -36 -17 -48 -33 -50 -12 -2 -34 -9 -50
-15 -16 -7 -40 -14 -52 -15 -28 -3 -72 -30 -72 -44 0 -18 -18 -10 -48 20 -34
33 -81 40 -102 15 -19 -22 -4 -81 27 -105 l26 -20 -24 0 c-13 -1 -41 -1 -61
-1 -28 1 -38 -4 -43 -19 -7 -23 -25 -27 -25 -5 0 16 -12 20 -23 8 -4 -3 0 -14
8 -24 15 -15 14 -19 -11 -38 -19 -15 -30 -18 -39 -11 -9 7 -16 6 -25 -5 -11
-13 101 -15 1036 -15 1068 0 1107 2 1133 36 6 10 86 54 96 54 3 0 1 -9 -4 -19
-12 -21 10 -48 29 -36 13 8 13 45 0 45 -5 0 -10 5 -10 11 0 6 7 9 15 5 20 -7
45 3 45 19 0 8 14 23 31 35 28 20 31 21 48 6 11 -10 35 -16 64 -16 55 0 97 31
120 89 16 39 82 90 98 74 4 -4 9 -23 11 -42 l3 -35 15 28 c13 25 13 29 -3 38
-23 12 -13 28 13 21 20 -5 20 -3 20 621 -1 344 -2 626 -4 626 -2 0 -10 -8 -19
-18z m7 -113 c-10 -16 -24 -9 -24 12 0 18 2 19 15 9 8 -7 12 -16 9 -21z m-204
-179 c0 -5 -7 -10 -15 -10 -8 0 -15 5 -15 10 0 6 7 10 15 10 8 0 15 -4 15 -10z
m-457 -242 c10 -38 -6 -48 -38 -24 -16 12 -17 16 -6 30 19 22 38 20 44 -6z
m477 7 c0 -8 -7 -15 -15 -15 -16 0 -20 12 -8 23 11 12 23 8 23 -8z m-606 -17
c-9 -31 -12 -34 -26 -20 -8 8 -8 15 2 27 19 22 32 18 24 -7z m-69 -68 c-3 -5
-11 -10 -16 -10 -6 0 -7 5 -4 10 3 6 11 10 16 10 6 0 7 -4 4 -10z m-267 -191
c-2 -6 -8 -10 -13 -10 -5 0 -11 4 -13 10 -2 6 4 11 13 11 9 0 15 -5 13 -11z
m-248 -39 c0 -5 -4 -10 -10 -10 -5 0 -10 5 -10 10 0 6 5 10 10 10 6 0 10 -4
10 -10z m-400 -160 c0 -5 -4 -10 -10 -10 -5 0 -10 5 -10 10 0 6 5 10 10 10 6
0 10 -4 10 -10z m-263 -125 c3 -33 1 -35 -27 -35 -41 0 -51 27 -21 52 34 26
46 22 48 -17z m588 -45 c-3 -5 -13 -10 -21 -10 -8 0 -12 5 -9 10 3 6 13 10 21
10 8 0 12 -4 9 -10z m-245 -21 c0 -5 -7 -9 -15 -9 -15 0 -20 12 -9 23 8 8 24
-1 24 -14z m1440 -58 c0 -4 -9 -7 -20 -8 -19 -2 -26 8 -14 20 7 7 34 -2 34
-12z m-2252 -80 c3 -8 -1 -12 -9 -9 -7 2 -15 10 -17 17 -3 8 1 12 9 9 7 -2 15
-10 17 -17z m162 -1 c0 -5 -4 -10 -10 -10 -5 0 -10 5 -10 10 0 6 5 10 10 10 6
0 10 -4 10 -10z m-60 -34 c0 -3 -4 -8 -10 -11 -5 -3 -10 -1 -10 4 0 6 5 11 10
11 6 0 10 -2 10 -4z m-183 -105 c-7 -2 -15 -9 -19 -15 -5 -7 -8 -5 -8 5 0 23
22 42 32 26 4 -7 2 -14 -5 -16z"/>
<path d="M1428 1463 c7 -3 16 -2 19 1 4 3 -2 6 -13 5 -11 0 -14 -3 -6 -6z"/>
<path d="M1460 1461 c0 -6 4 -13 10 -16 6 -3 7 1 4 9 -7 18 -14 21 -14 7z"/>
<path d="M4966 1452 c-3 -6 -1 -14 5 -17 15 -10 25 3 12 16 -7 7 -13 7 -17 1z"/>
<path d="M4818 1406 c-22 -16 -23 -36 -3 -36 8 0 15 -7 15 -15 0 -8 5 -15 11
-15 6 0 9 6 6 14 -3 7 -1 18 4 23 5 5 4 15 -3 26 -11 13 -16 14 -30 3z"/>
<path d="M4750 1390 c0 -5 5 -10 10 -10 6 0 10 5 10 10 0 6 -4 10 -10 10 -5 0
-10 -4 -10 -10z"/>
<path d="M4745 1360 c-3 -5 -1 -10 4 -10 6 0 11 5 11 10 0 6 -2 10 -4 10 -3 0
-8 -4 -11 -10z"/>
<path d="M4780 1350 c0 -5 5 -10 10 -10 6 0 10 5 10 10 0 6 -4 10 -10 10 -5 0
-10 -4 -10 -10z"/>
<path d="M4676 1312 c-2 -4 4 -13 15 -20 16 -11 19 -9 19 8 0 19 -24 28 -34
12z"/>
<path d="M4620 1280 c0 -5 4 -10 9 -10 6 0 13 5 16 10 3 6 -1 10 -9 10 -9 0
-16 -4 -16 -10z"/>
<path d="M4680 1250 c0 -5 5 -10 10 -10 6 0 10 5 10 10 0 6 -4 10 -10 10 -5 0
-10 -4 -10 -10z"/>
<path d="M4511 1227 c-8 -11 -6 -18 9 -32 19 -17 22 -17 37 -2 13 13 14 19 3
31 -15 20 -34 20 -49 3z"/>
<path d="M4425 1170 c3 -5 8 -10 11 -10 2 0 4 5 4 10 0 6 -5 10 -11 10 -5 0
-7 -4 -4 -10z"/>
<path d="M4296 1153 c-11 -11 -6 -23 9 -23 8 0 15 4 15 9 0 13 -16 22 -24 14z"/>
<path d="M4123 1083 c-20 -8 -15 -23 7 -23 11 0 20 7 20 15 0 15 -6 17 -27 8z"/>
<path d="M3930 1005 c0 -8 5 -15 10 -15 6 0 10 7 10 15 0 8 -4 15 -10 15 -5 0
-10 -7 -10 -15z"/>
<path d="M4105 979 c-5 -13 -1 -27 9 -37 14 -14 16 -13 25 9 5 15 5 29 -1 37
-15 18 -26 15 -33 -9z"/>
<path d="M4042 978 c-18 -18 -14 -28 8 -28 11 0 20 6 20 14 0 21 -15 27 -28
14z"/>
<path d="M3851 956 c-8 -9 -11 -19 -7 -23 9 -9 29 13 24 27 -2 8 -8 7 -17 -4z"/>
<path d="M3935 950 c-3 -5 1 -10 9 -10 9 0 16 5 16 10 0 6 -4 10 -9 10 -6 0
-13 -4 -16 -10z"/>
<path d="M3970 930 c0 -5 5 -10 10 -10 6 0 10 5 10 10 0 6 -4 10 -10 10 -5 0
-10 -4 -10 -10z"/>
<path d="M3935 870 c-3 -5 -1 -10 4 -10 6 0 11 5 11 10 0 6 -2 10 -4 10 -3 0
-8 -4 -11 -10z"/>
<path d="M3905 850 c-3 -5 -1 -10 4 -10 6 0 11 5 11 10 0 6 -2 10 -4 10 -3 0
-8 -4 -11 -10z"/>
<path d="M3685 780 c-8 -13 4 -32 16 -25 12 8 12 35 0 35 -6 0 -13 -4 -16 -10z"/>
<path d="M3491 644 c0 -11 3 -14 6 -6 3 7 2 16 -1 19 -3 4 -6 -2 -5 -13z"/>
<path d="M3220 600 c0 -5 4 -10 9 -10 6 0 13 5 16 10 3 6 -1 10 -9 10 -9 0
-16 -4 -16 -10z"/>
<path d="M3380 580 c0 -5 5 -10 11 -10 5 0 7 5 4 10 -3 6 -8 10 -11 10 -2 0
-4 -4 -4 -10z"/>
<path d="M2925 490 c-8 -13 -1 -24 14 -19 6 3 7 10 2 18 -6 10 -10 10 -16 1z"/>
<path d="M3210 490 c0 -5 7 -10 15 -10 8 0 15 5 15 10 0 6 -7 10 -15 10 -8 0
-15 -4 -15 -10z"/>
<path d="M2842 398 c-25 -25 -9 -54 23 -42 9 4 15 15 13 27 -4 25 -19 32 -36
15z"/>
<path d="M2798 289 c-19 -11 -25 -39 -8 -39 6 0 10 5 10 11 0 7 8 18 18 25 20
16 5 18 -20 3z"/>
<path d="M5086 209 l-29 -28 26 -12 c28 -13 38 -33 12 -22 -9 3 -22 -2 -30
-13 -8 -11 -14 -14 -15 -6 0 6 -5 12 -11 12 -6 0 -8 -7 -5 -16 4 -12 2 -15 -9
-10 -9 3 -15 0 -15 -8 0 -18 -27 -28 -36 -14 -5 7 -10 3 -15 -11 -10 -24 -81
-59 -134 -64 -19 -2 -38 -7 -42 -10 -3 -4 71 -7 166 -7 l172 0 -2 120 c-2 66
-3 120 -3 119 -1 -1 -14 -14 -30 -30z"/>
<path d="M5030 200 c0 -5 5 -10 10 -10 6 0 10 5 10 10 0 6 -4 10 -10 10 -5 0
-10 -4 -10 -10z"/>
<path d="M4986 163 c-11 -11 -6 -23 8 -23 8 0 17 4 20 9 7 10 -19 23 -28 14z"/>
<path d="M4905 120 c-3 -5 -1 -10 4 -10 6 0 11 5 11 10 0 6 -2 10 -4 10 -3 0
-8 -4 -11 -10z"/>
<path d="M2365 100 c-3 -5 -1 -10 4 -10 6 0 11 5 11 10 0 6 -2 10 -4 10 -3 0
-8 -4 -11 -10z"/>
<path d="M2371 71 c-12 -8 -12 -12 2 -25 23 -23 37 -20 37 9 0 26 -14 31 -39
16z"/>
<path d="M4675 28 c-14 -21 -14 -23 1 -26 20 -5 49 22 40 37 -11 17 -23 13
-41 -11z"/>
<path d="M2292 23 c2 -10 13 -19 26 -21 17 -3 22 2 22 17 0 16 -6 21 -26 21
-19 0 -25 -5 -22 -17z"/>
<path d="M4600 10 c0 -5 7 -10 15 -10 8 0 15 5 15 10 0 6 -7 10 -15 10 -8 0
-15 -4 -15 -10z"/>
</g>
</svg>
